<svg width="8" height="14" viewBox="0 0 8 14" fill="none" xmlns="http://www.w3.org/2000/svg">
<g clip-path="url(#clip0_125_1833)">
<path d="M7.02711 14C6.87347 13.9977 6.72639 13.9373 6.61549 13.831L0.299077 7.86491C0.206079 7.77698 0.131691 7.67127 0.0803283 7.55405C0.0289654 7.43683 0.00167431 7.31048 7.46496e-05 7.18251C-0.00152501 7.05453 0.0225994 6.92754 0.071016 6.80907C0.119433 6.6906 0.191155 6.58306 0.281927 6.49284L6.59344 0.178875C6.70912 0.0674502 6.86394 0.00592026 7.02455 0.00753845C7.18516 0.00915665 7.3387 0.0737935 7.45211 0.187526C7.56553 0.301259 7.62973 0.454988 7.63089 0.6156C7.63206 0.776211 7.57009 0.930854 7.45834 1.04622L1.33303 7.17153L7.44609 12.9416C7.53536 13.0256 7.59735 13.1346 7.62402 13.2543C7.65069 13.374 7.64082 13.4989 7.59568 13.6129C7.55055 13.7269 7.47223 13.8248 7.37086 13.8938C7.26949 13.9628 7.14974 13.9998 7.02711 14Z" fill="#7A6C73"/>
</g>
<defs>
<clipPath id="clip0_125_1833">
<rect width="7.63948" height="14" fill="white"/>
</clipPath>
</defs>
</svg>
