<svg width="6" height="11" viewBox="0 0 6 11" fill="none" xmlns="http://www.w3.org/2000/svg">
<g clip-path="url(#clip0_125_546)">
<path d="M0.481194 2.71741e-05C0.601868 0.00181723 0.717382 0.0492797 0.804478 0.132859L5.76535 4.82047C5.83839 4.88955 5.89682 4.97261 5.93716 5.06472C5.9775 5.15682 5.99893 5.25609 6.00019 5.35664C6.00144 5.45719 5.9825 5.55697 5.94447 5.65005C5.90644 5.74314 5.85011 5.82763 5.77882 5.89852L0.821796 10.8595C0.730942 10.947 0.609349 10.9954 0.483209 10.9941C0.357069 10.9928 0.236474 10.9421 0.147401 10.8527C0.0583286 10.7633 0.00790456 10.6425 0.00699047 10.5164C0.00607639 10.3902 0.0547453 10.2687 0.142514 10.178L4.95329 5.36527L0.152137 0.831668C0.0820207 0.765612 0.033338 0.680021 0.0123906 0.585975C-0.00855688 0.491929 -0.000805405 0.393757 0.0346427 0.304168C0.0700908 0.214579 0.131603 0.137697 0.211216 0.0834727C0.290831 0.0292487 0.384881 0.0001788 0.481194 2.71741e-05Z" fill="#A4ABBD"/>
</g>
<defs>
<clipPath id="clip0_125_546">
<rect width="6" height="11" fill="white" transform="translate(6 11) rotate(-180)"/>
</clipPath>
</defs>
</svg>
