<svg width="15" height="8" viewBox="0 0 15 8" fill="none" xmlns="http://www.w3.org/2000/svg">
<path d="M14.5033 0.968054H0.496689C0.364959 0.968054 0.238624 0.917059 0.145477 0.826286C0.0523296 0.735513 0 0.612399 0 0.484027C0 0.355655 0.0523296 0.232541 0.145477 0.141768C0.238624 0.0509956 0.364959 0 0.496689 0L14.5033 0C14.635 0 14.7614 0.0509956 14.8545 0.141768C14.9477 0.232541 15 0.355655 15 0.484027C15 0.612399 14.9477 0.735513 14.8545 0.826286C14.7614 0.917059 14.635 0.968054 14.5033 0.968054Z" fill="white"/>
<path d="M14.5033 8.00004H0.496689C0.364959 8.00004 0.238624 7.94904 0.145477 7.85827C0.0523296 7.7675 0 7.64438 0 7.51601C0 7.38764 0.0523296 7.26452 0.145477 7.17375C0.238624 7.08298 0.364959 7.03198 0.496689 7.03198H14.5033C14.635 7.03198 14.7614 7.08298 14.8545 7.17375C14.9477 7.26452 15 7.38764 15 7.51601C15 7.64438 14.9477 7.7675 14.8545 7.85827C14.7614 7.94904 14.635 8.00004 14.5033 8.00004Z" fill="white"/>
</svg>
