<svg width="23" height="17" viewBox="0 0 23 17" fill="none" xmlns="http://www.w3.org/2000/svg">
<g clip-path="url(#clip0_174_255)">
<path d="M9.57523 17C9.49463 17.0021 9.41403 16.9954 9.33486 16.9801H9.28855L7.11862 16.2524C6.0353 15.8876 4.91721 15.6356 3.78213 15.5004L1.13588 15.1763C0.810945 15.1086 0.519771 14.9298 0.312482 14.6705C0.105193 14.4113 -0.0052414 14.088 0.000191289 13.7561V1.42454C-0.00145529 1.22409 0.0407157 1.02569 0.123754 0.843236C0.206793 0.66078 0.328693 0.49867 0.480928 0.368247C0.651546 0.222871 0.851778 0.116397 1.0677 0.0562271C1.28363 -0.00394295 1.51007 -0.0163656 1.73128 0.0198228L2.73907 0.119057C5.28375 0.371412 7.77496 1.01095 10.1265 2.01554C10.286 2.06309 10.4259 2.16093 10.5252 2.29446C10.6246 2.42799 10.6781 2.59006 10.6778 2.75649V15.8952C10.6778 16.1876 10.5617 16.468 10.3549 16.6748C10.1481 16.8816 9.86766 16.9978 9.57523 16.9978V17ZM9.54215 16.1179C9.57212 16.1222 9.60266 16.1204 9.63188 16.1124C9.66109 16.1044 9.68835 16.0905 9.71196 16.0716C9.73824 16.0508 9.75944 16.0243 9.77396 15.9941C9.78848 15.964 9.79593 15.9309 9.79575 15.8974V2.83368C7.52031 1.86023 5.10931 1.24075 2.64645 0.996733L1.62323 0.893088C1.524 0.875244 1.42211 0.878801 1.32437 0.903521C1.22663 0.928241 1.1353 0.973554 1.05649 1.03643C1.00049 1.08415 0.955807 1.14374 0.925676 1.21087C0.895545 1.27799 0.880721 1.35098 0.882277 1.42454V13.7561C0.883025 13.8791 0.924244 13.9985 0.999573 14.0957C1.0749 14.193 1.18015 14.2627 1.29906 14.2942L3.88798 14.6051C5.08275 14.7493 6.25976 15.0146 7.40089 15.3968L9.54215 16.1179Z" fill="#7A6C73"/>
<path d="M12.9625 17C12.67 17 12.3896 16.8838 12.1828 16.677C11.976 16.4702 11.8599 16.1898 11.8599 15.8974V2.75649C11.8591 2.59025 11.9122 2.42823 12.0111 2.29466C12.1101 2.1611 12.2497 2.06317 12.409 2.01554C14.7614 1.01112 17.2533 0.371596 19.7986 0.119054L20.8263 0.0154088C21.044 -0.0165674 21.266 -0.00162807 21.4775 0.0592252C21.6889 0.120079 21.885 0.225439 22.0524 0.368243C22.2043 0.498957 22.3259 0.661123 22.4089 0.843513C22.4919 1.0259 22.5343 1.22415 22.5331 1.42454V13.7561C22.5349 14.0837 22.4238 14.402 22.2186 14.6574C22.0134 14.9128 21.7266 15.0898 21.4062 15.1586H21.3621L18.7446 15.4828C17.6096 15.6184 16.4915 15.8704 15.4081 16.2348L13.2028 16.9801C13.1237 16.9954 13.0431 17.0021 12.9625 17ZM12.742 2.83367V15.8952C12.7415 15.9285 12.7486 15.9615 12.7628 15.9916C12.7769 16.0218 12.7977 16.0484 12.8236 16.0694C12.8725 16.1069 12.9344 16.1236 12.9956 16.1157L15.1368 15.3968C16.2772 15.0146 17.4535 14.7493 18.6475 14.6051L21.2364 14.2942C21.356 14.2634 21.4619 14.194 21.5377 14.0966C21.6135 13.9992 21.6549 13.8795 21.6554 13.7561V1.42454C21.657 1.35076 21.642 1.27756 21.6115 1.21037C21.5809 1.14318 21.5357 1.08373 21.479 1.03642C21.4041 0.973228 21.3166 0.926763 21.2223 0.900141C21.1279 0.87352 21.029 0.867354 20.9321 0.882058L19.8846 0.987909C17.4236 1.2354 15.0148 1.85785 12.742 2.83367Z" fill="#7A6C73"/>
</g>
<defs>
<clipPath id="clip0_174_255">
<rect width="22.5373" height="17" fill="white"/>
</clipPath>
</defs>
</svg>
