<svg width="12" height="12" viewBox="0 0 12 12" fill="none" xmlns="http://www.w3.org/2000/svg">
<path d="M11.4393 12H0.560727C0.412013 12 0.26939 11.9409 0.164233 11.8358C0.0590765 11.7306 0 11.588 0 11.4393L0 0.560727C0 0.412013 0.0590765 0.26939 0.164233 0.164233C0.26939 0.0590765 0.412013 0 0.560727 0L11.4393 0C11.588 0 11.7306 0.0590765 11.8358 0.164233C11.9409 0.26939 12 0.412013 12 0.560727V11.4393C12 11.588 11.9409 11.7306 11.8358 11.8358C11.7306 11.9409 11.588 12 11.4393 12ZM1.09091 10.9091H10.9091V1.09091H1.09091V10.9091Z" fill="#BDBDBD"/>
<path d="M4.19585 11.7359C4.12414 11.7362 4.05308 11.7223 3.98677 11.695C3.92046 11.6677 3.86022 11.6275 3.80951 11.5768C3.7588 11.5261 3.71864 11.4658 3.69133 11.3995C3.66402 11.3332 3.65011 11.2622 3.6504 11.1905V0.774458C3.6504 0.629795 3.70786 0.491056 3.81015 0.388764C3.91245 0.286471 4.05119 0.229004 4.19585 0.229004C4.34051 0.229004 4.47925 0.286471 4.58154 0.388764C4.68384 0.491056 4.7413 0.629795 4.7413 0.774458V11.1905C4.74159 11.2622 4.72768 11.3332 4.70037 11.3995C4.67306 11.4658 4.63289 11.5261 4.58219 11.5768C4.53148 11.6275 4.47123 11.6677 4.40493 11.695C4.33862 11.7223 4.26756 11.7362 4.19585 11.7359Z" fill="#BDBDBD"/>
<path d="M7.80424 11.5965C7.65958 11.5965 7.52084 11.5391 7.41855 11.4368C7.31626 11.3345 7.25879 11.1958 7.25879 11.0511V0.916548C7.25879 0.771885 7.31626 0.633146 7.41855 0.530854C7.52084 0.428561 7.65958 0.371094 7.80424 0.371094C7.94891 0.371094 8.08765 0.428561 8.18994 0.530854C8.29223 0.633146 8.3497 0.771885 8.3497 0.916548V11.0511C8.3497 11.1958 8.29223 11.3345 8.18994 11.4368C8.08765 11.5391 7.94891 11.5965 7.80424 11.5965Z" fill="#BDBDBD"/>
<path d="M11.3848 4.7413H0.693892C0.549228 4.7413 0.41049 4.68383 0.308197 4.58154C0.205905 4.47925 0.148438 4.34051 0.148438 4.19585C0.148438 4.05118 0.205905 3.91244 0.308197 3.81015C0.41049 3.70786 0.549228 3.65039 0.693892 3.65039H11.3848C11.5295 3.65039 11.6682 3.70786 11.7705 3.81015C11.8728 3.91244 11.9303 4.05118 11.9303 4.19585C11.9303 4.34051 11.8728 4.47925 11.7705 4.58154C11.6682 4.68383 11.5295 4.7413 11.3848 4.7413Z" fill="#BDBDBD"/>
<path d="M11.2408 8.3497H0.83354C0.688877 8.3497 0.550138 8.29223 0.447846 8.18994C0.345553 8.08765 0.288086 7.94891 0.288086 7.80424C0.288086 7.65958 0.345553 7.52084 0.447846 7.41855C0.550138 7.31626 0.688877 7.25879 0.83354 7.25879H11.2408C11.3855 7.25879 11.5242 7.31626 11.6265 7.41855C11.7288 7.52084 11.7863 7.65958 11.7863 7.80424C11.7863 7.94891 11.7288 8.08765 11.6265 8.18994C11.5242 8.29223 11.3855 8.3497 11.2408 8.3497Z" fill="#BDBDBD"/>
</svg>
