<svg width="12" height="12" viewBox="0 0 12 12" fill="none" xmlns="http://www.w3.org/2000/svg">
<g clip-path="url(#clip0_210_2297)">
<path d="M11.4528 12.0002C11.3809 12.0005 11.3096 11.9865 11.2432 11.9591C11.1767 11.9316 11.1163 11.8914 11.0655 11.8405L0.159423 0.934387C0.0567208 0.831685 -0.000976564 0.692391 -0.000976562 0.547149C-0.000976561 0.401907 0.0567208 0.262613 0.159423 0.159911C0.262125 0.0572091 0.401418 -0.00048828 0.546661 -0.000488281C0.691903 -0.000488283 0.831197 0.0572091 0.933899 0.159911L11.84 11.066C11.9418 11.1692 11.9989 11.3083 11.9989 11.4533C11.9989 11.5982 11.9418 11.7373 11.84 11.8405C11.7892 11.8914 11.7288 11.9316 11.6624 11.9591C11.5959 11.9865 11.5247 12.0005 11.4528 12.0002Z" fill="#BDBDBD"/>
<path d="M0.547105 12.0002C0.475213 12.0005 0.403983 11.9865 0.337522 11.9591C0.27106 11.9316 0.210682 11.8914 0.159867 11.8405C0.0580585 11.7373 0.000976562 11.5982 0.000976562 11.4533C0.000976562 11.3083 0.0580585 11.1692 0.159867 11.066L11.066 0.159911C11.1687 0.0572091 11.308 -0.000488281 11.4532 -0.000488281C11.5985 -0.000488281 11.7377 0.0572091 11.8405 0.159911C11.9432 0.262613 12.0008 0.401907 12.0008 0.547149C12.0008 0.692392 11.9432 0.831685 11.8405 0.934387L0.934343 11.8405C0.883528 11.8914 0.823149 11.9316 0.756688 11.9591C0.690226 11.9865 0.618996 12.0005 0.547105 12.0002Z" fill="#BDBDBD"/>
</g>
<defs>
<clipPath id="clip0_210_2297">
<rect width="12" height="12" fill="white"/>
</clipPath>
</defs>
</svg>
