<svg width="12" height="12" viewBox="0 0 12 12" fill="none" xmlns="http://www.w3.org/2000/svg">
<g clip-path="url(#clip0_402_11095)">
<path d="M11.4535 12C11.3816 12.0002 11.3104 11.9862 11.2439 11.9588C11.1775 11.9314 11.1171 11.8911 11.0663 11.8403L0.160186 0.934143C0.0574837 0.831441 -0.000213625 0.692147 -0.000213623 0.546905C-0.000213622 0.401662 0.0574837 0.262369 0.160186 0.159667C0.262887 0.0569649 0.402181 -0.00073242 0.547423 -0.000732422C0.692666 -0.000732423 0.83196 0.0569649 0.934661 0.159667L11.8408 11.0658C11.9426 11.169 11.9997 11.3081 11.9997 11.453C11.9997 11.598 11.9426 11.7371 11.8408 11.8403C11.79 11.8911 11.7296 11.9314 11.6631 11.9588C11.5967 11.9862 11.5254 12.0002 11.4535 12Z" fill="white"/>
<path d="M0.54741 12C0.475518 12.0002 0.404288 11.9862 0.337827 11.9588C0.271365 11.9314 0.210987 11.8911 0.160172 11.8403C0.0583637 11.7371 0.00128174 11.598 0.00128174 11.453C0.00128174 11.3081 0.0583637 11.169 0.160172 11.0658L11.0663 0.159667C11.169 0.0569649 11.3083 -0.000732422 11.4535 -0.000732422C11.5988 -0.000732422 11.7381 0.0569649 11.8408 0.159667C11.9435 0.262369 12.0012 0.401662 12.0012 0.546905C12.0012 0.692147 11.9435 0.831441 11.8408 0.934143L0.934648 11.8403C0.883833 11.8911 0.823454 11.9314 0.756993 11.9588C0.690531 11.9862 0.619302 12.0002 0.54741 12Z" fill="white"/>
</g>
<defs>
<clipPath id="clip0_402_11095">
<rect width="12" height="12" fill="white" transform="translate(0.000488281)"/>
</clipPath>
</defs>
</svg>
