<svg width="31" height="30" viewBox="0 0 31 30" fill="none" xmlns="http://www.w3.org/2000/svg">
<g clip-path="url(#clip0_292_138)">
<path d="M15.0322 30C23.3165 30 30.0322 23.2842 30.0322 15C30.0322 6.71575 23.3165 0 15.0322 0C6.74798 0 0.0322266 6.71575 0.0322266 15C0.0322266 23.2842 6.74798 30 15.0322 30Z" fill="#3B5998"/>
<path d="M19.2088 16.0966L19.7078 12.9212H16.5925V10.8606C16.5708 10.6235 16.6039 10.3846 16.6895 10.1616C16.7752 9.93869 16.9109 9.7374 17.087 9.57263C17.263 9.40791 17.4747 9.28389 17.7063 9.20986C17.9381 9.13582 18.1839 9.11363 18.4256 9.14487H19.8436V6.44114C19.0108 6.3097 18.1692 6.23793 17.3257 6.22644C14.7569 6.22644 13.0775 7.74744 13.0775 10.5009V12.9212H10.2209V16.0966H13.0775V23.7736H16.5925V16.0966H19.2088Z" fill="white"/>
</g>
<defs>
<clipPath id="clip0_292_138">
<rect width="30" height="30" fill="white" transform="translate(0.0322266)"/>
</clipPath>
</defs>
</svg>
