<svg width="14" height="18" viewBox="0 0 14 18" fill="none" xmlns="http://www.w3.org/2000/svg">
<g clip-path="url(#clip0_114_2)">
<path d="M10.9827 0.669901C11.4738 0.670492 11.9447 0.867383 12.292 1.21738C12.6393 1.56739 12.8347 2.04192 12.8353 2.5369V17.1826C12.8353 17.2021 12.8314 17.2214 12.8239 17.2395C12.8164 17.2575 12.8055 17.2739 12.7916 17.2876C12.7778 17.3013 12.7614 17.3121 12.7434 17.3194C12.7254 17.3266 12.7062 17.3302 12.6868 17.3299C12.655 17.3292 12.6245 17.3174 12.6004 17.2964L7.73398 13.3101C7.45552 13.0831 7.10822 12.9593 6.75007 12.9593C6.39192 12.9593 6.04461 13.0831 5.76615 13.3101L0.890909 17.2964C0.866814 17.3174 0.83627 17.3292 0.804484 17.3299C0.766858 17.3282 0.731342 17.3119 0.705336 17.2845C0.679329 17.257 0.664836 17.2205 0.664874 17.1826V2.5369C0.665461 2.04192 0.860833 1.56739 1.20813 1.21738C1.55544 0.867383 2.02631 0.670492 2.51747 0.669901H10.9827ZM10.9827 -7.3938e-05H2.51747C1.84999 0.000517416 1.21002 0.267995 0.738046 0.743641C0.266069 1.21929 0.000655055 1.86423 6.82629e-05 2.5369V17.1826C-0.00194461 17.3387 0.040596 17.4922 0.122629 17.6246C0.204662 17.7571 0.322735 17.8631 0.4628 17.9299C0.602866 17.9967 0.759028 18.0216 0.912709 18.0015C1.06639 17.9815 1.21112 17.9174 1.32968 17.8168L6.20493 13.8304C6.36494 13.7003 6.56437 13.6293 6.77001 13.6293C6.97565 13.6293 7.17508 13.7003 7.3351 13.8304L12.1882 17.8168C12.3067 17.9174 12.4515 17.9815 12.6052 18.0015C12.7588 18.0216 12.915 17.9967 13.0551 17.9299C13.1951 17.8631 13.3132 17.7571 13.3952 17.6246C13.4773 17.4922 13.5198 17.3387 13.5178 17.1826V2.5369C13.5175 2.20231 13.4516 1.87108 13.3239 1.56225C13.1962 1.25341 13.0091 0.973061 12.7736 0.737305C12.538 0.501549 12.2585 0.315039 11.9511 0.188495C11.6438 0.06195 11.3147 -0.00213395 10.9827 -7.3938e-05V-7.3938e-05Z" fill="#7A6C73"/>
<path d="M11.5678 3.12652H1.9325C1.84434 3.12652 1.75979 3.09123 1.69746 3.0284C1.63512 2.96558 1.6001 2.88037 1.6001 2.79153C1.6001 2.70269 1.63512 2.61748 1.69746 2.55466C1.75979 2.49184 1.84434 2.45654 1.9325 2.45654H11.5678C11.6559 2.45654 11.7405 2.49184 11.8028 2.55466C11.8651 2.61748 11.9002 2.70269 11.9002 2.79153C11.9002 2.88037 11.8651 2.96558 11.8028 3.0284C11.7405 3.09123 11.6559 3.12652 11.5678 3.12652V3.12652Z" fill="#7A6C73"/>
</g>
<defs>
<clipPath id="clip0_114_2">
<rect width="13.5" height="18" fill="white"/>
</clipPath>
</defs>
</svg>
