<svg width="15" height="11" viewBox="0 0 15 11" fill="none" xmlns="http://www.w3.org/2000/svg">
<path d="M14.4125 11H0.587473C0.431666 11 0.28224 10.9378 0.172067 10.8271C0.0618943 10.7164 0 10.5662 0 10.4097L0 0.590311C0 0.433751 0.0618943 0.283603 0.172067 0.172898C0.28224 0.0621933 0.431666 0 0.587473 0L14.4125 0C14.5683 0 14.7178 0.0621933 14.8279 0.172898C14.9381 0.283603 15 0.433751 15 0.590311V10.4097C15 10.5662 14.9381 10.7164 14.8279 10.8271C14.7178 10.9378 14.5683 11 14.4125 11ZM1.15437 9.85153H13.8571V1.14847H1.14294L1.15437 9.85153Z" fill="#BDBDBD"/>
</svg>
