<svg width="30" height="30" viewBox="0 0 30 30" fill="none" xmlns="http://www.w3.org/2000/svg">
<g clip-path="url(#clip0_402_10911)">
<path d="M14.5161 0C17.3871 0 20.1937 0.879736 22.5808 2.52796C24.968 4.17618 26.8286 6.51883 27.9273 9.25976C29.026 12.0006 29.3134 15.0166 28.7533 17.9264C28.1932 20.8361 26.8107 23.5088 24.7806 25.6066C22.7505 27.7044 20.164 29.133 17.3481 29.7118C14.5322 30.2905 11.6135 29.9935 8.96103 28.8582C6.3086 27.7229 4.04146 25.8003 2.44641 23.3335C0.851354 20.8668 0 17.9667 0 15C0 11.0218 1.52937 7.20645 4.25167 4.3934C6.974 1.58035 10.6662 0 14.5161 0Z" fill="white"/>
<path d="M21.3427 10.4127V19.0827C21.3448 19.1972 21.3245 19.3109 21.283 19.4171C21.2416 19.5233 21.1798 19.6198 21.1015 19.7007C21.0231 19.7817 20.9298 19.8454 20.827 19.8883C20.7243 19.9311 20.6142 19.9521 20.5034 19.95H19.6628V12.0811L14.6303 15.8181L9.59588 12.0811V19.9493H8.75724C8.64647 19.9515 8.53643 19.9306 8.43364 19.8879C8.33091 19.8451 8.23756 19.7814 8.15918 19.7005C8.08084 19.6195 8.0191 19.5231 7.97761 19.417C7.93619 19.3109 7.91586 19.1972 7.91793 19.0827V10.4127C7.91597 10.2983 7.9363 10.1846 7.97778 10.0784C8.01926 9.97227 8.08101 9.87588 8.15934 9.79493C8.23767 9.71399 8.33102 9.6502 8.4337 9.60729C8.53643 9.56444 8.64647 9.54339 8.75724 9.54542H9.03964L14.633 13.7359L20.2236 9.54542H20.5034C20.6142 9.54339 20.7242 9.56444 20.8269 9.60729C20.9296 9.6502 21.0229 9.71399 21.1013 9.79493C21.1796 9.87588 21.2413 9.97227 21.2828 10.0784C21.3243 10.1846 21.3447 10.2983 21.3427 10.4127Z" fill="#C10606"/>
</g>
<defs>
<clipPath id="clip0_402_10911">
<rect width="29.0323" height="30" fill="white"/>
</clipPath>
</defs>
</svg>
