<svg width="12" height="14" viewBox="0 0 12 14" fill="none" xmlns="http://www.w3.org/2000/svg">
<path d="M2.51231 13.9999C2.44498 14 2.37834 13.9876 2.3166 13.9636C2.25487 13.9396 2.19936 13.9044 2.15357 13.8602L0.201203 11.9817C0.0709279 11.8354 0 11.6539 0 11.4668C0 11.2798 0.0709279 11.0983 0.201203 10.9519L0.225607 10.9279L2.15845 9.13452C2.24809 9.05091 2.37122 9.00255 2.50074 9.0001C2.63026 8.99764 2.75557 9.04129 2.8491 9.12143C2.94262 9.20157 2.99671 9.31165 2.99946 9.42744C3.0022 9.54323 2.95338 9.65526 2.86374 9.73887L0.994351 11.4843L2.86862 13.2755C2.91244 13.3175 2.94657 13.3667 2.96906 13.4205C2.99155 13.4742 3.00196 13.5314 2.9997 13.5888C2.99743 13.6461 2.98253 13.7025 2.95585 13.7547C2.92917 13.8069 2.89123 13.8539 2.84422 13.893C2.75236 13.9644 2.63399 14.0025 2.51231 13.9999Z" fill="#FA9372"/>
<path d="M11.6121 12H1.38794C1.28505 12 1.18638 11.9473 1.11362 11.8536C1.04087 11.7598 1 11.6326 1 11.5C1 11.3674 1.04087 11.2402 1.11362 11.1464C1.18638 11.0527 1.28505 11 1.38794 11H11.6121C11.7149 11 11.8136 11.0527 11.8864 11.1464C11.9591 11.2402 12 11.3674 12 11.5C12 11.6326 11.9591 11.7598 11.8864 11.8536C11.8136 11.9473 11.7149 12 11.6121 12Z" fill="#FA9372"/>
<path d="M9.48835 4.99998C9.39253 5.00006 9.2988 4.97493 9.21887 4.92772C9.13893 4.88051 9.07633 4.81331 9.03886 4.73451C9.0014 4.65571 8.99074 4.5688 9.00821 4.48462C9.02569 4.40044 9.07052 4.32272 9.13711 4.26116L11.0031 2.51765L9.13223 0.734916C9.08835 0.693131 9.05411 0.644032 9.03146 0.590422C9.00881 0.536813 8.99821 0.479743 9.00025 0.422471C9.00229 0.365199 9.01693 0.308846 9.04334 0.256631C9.06975 0.204415 9.10742 0.157359 9.15419 0.11815C9.20095 0.0789402 9.2559 0.0483448 9.3159 0.0281105C9.3759 0.00787615 9.43977 -0.00160088 9.50387 0.000220497C9.56797 0.00204187 9.63104 0.015126 9.68948 0.0387258C9.74792 0.0623256 9.80059 0.0959789 9.84447 0.137764L11.7958 2.0164C11.9283 2.16302 12.0004 2.34591 12 2.53439C11.9996 2.72286 11.9266 2.90548 11.7934 3.0516L11.769 3.07558L9.83959 4.87139C9.79363 4.91271 9.73887 4.94537 9.67854 4.96746C9.61821 4.98954 9.55354 5.0006 9.48835 4.99998Z" fill="#FA9372"/>
<path d="M10.6121 3H0.387939C0.285051 3 0.186377 2.94732 0.113625 2.85355C0.040872 2.75979 0 2.63261 0 2.5C0 2.36739 0.040872 2.24022 0.113625 2.14645C0.186377 2.05268 0.285051 2 0.387939 2H10.6121C10.7149 2 10.8136 2.05268 10.8864 2.14645C10.9591 2.24022 11 2.36739 11 2.5C11 2.63261 10.9591 2.75979 10.8864 2.85355C10.8136 2.94732 10.7149 3 10.6121 3Z" fill="#FA9372"/>
</svg>
