<svg width="55" height="55" viewBox="0 0 22 24" fill="none" xmlns="http://www.w3.org/2000/svg">
<g clip-path="url(#clip0_402_10972)">
<path d="M19.6228 24H1.69873C1.2487 24 0.817052 23.8214 0.49856 23.5035C0.180067 23.1855 0.000758915 22.7542 0 22.3041L0 9.57364C0.00208764 9.33433 0.0541266 9.0981 0.152785 8.88006C0.251442 8.66203 0.394545 8.467 0.572929 8.30746L9.47911 0.429688C9.78075 0.160812 10.1686 0.00869099 10.5726 0.000810528C10.9766 -0.00706993 11.3701 0.12981 11.682 0.386719L20.6999 7.7861C20.8937 7.94542 21.0497 8.14573 21.1567 8.37261C21.2637 8.59948 21.319 8.84727 21.3187 9.09811V22.3041C21.3187 22.7539 21.14 23.1852 20.822 23.5033C20.5039 23.8213 20.0726 24 19.6228 24ZM10.5992 0.859385C10.3942 0.859305 10.1963 0.934775 10.0434 1.07137L1.14586 8.94628C1.05654 9.02471 0.984839 9.12116 0.935466 9.22929C0.886093 9.33742 0.860167 9.45477 0.859394 9.57364V22.3041C0.860152 22.5262 0.948917 22.739 1.10624 22.8958C1.26357 23.0526 1.47662 23.1406 1.69873 23.1406H19.6228C19.8447 23.1406 20.0574 23.0525 20.2143 22.8956C20.3712 22.7387 20.4593 22.526 20.4593 22.3041V9.09811C20.4595 8.9742 20.4321 8.85179 20.3791 8.7398C20.3261 8.62781 20.2488 8.52905 20.1528 8.4507L11.1349 1.05132C10.984 0.927127 10.7946 0.859275 10.5992 0.859385Z" fill="white"/>
<path d="M13.5956 20.9581C13.4816 20.9581 13.3723 20.9128 13.2918 20.8323C13.2112 20.7517 13.1659 20.6424 13.1659 20.5284V15.4866C13.1648 15.3764 13.142 15.2675 13.0987 15.1661C13.0555 15.0647 12.9927 14.9728 12.914 14.8956C12.8353 14.8185 12.7421 14.7576 12.6398 14.7165C12.5376 14.6754 12.4282 14.6548 12.318 14.6559H8.99212C8.76951 14.6559 8.55602 14.7443 8.39861 14.9017C8.2412 15.0591 8.15277 15.2726 8.15277 15.4952V20.5313C8.15277 20.6452 8.1075 20.7545 8.02692 20.8351C7.94634 20.9157 7.83704 20.961 7.72308 20.961C7.60911 20.961 7.49982 20.9157 7.41924 20.8351C7.33865 20.7545 7.29338 20.6452 7.29338 20.5313V15.4866C7.2964 15.0378 7.47662 14.6084 7.79478 14.2918C8.11295 13.9753 8.5433 13.7973 8.99212 13.7965H12.318C12.542 13.7939 12.7644 13.8356 12.9722 13.9192C13.1801 14.0028 13.3693 14.1268 13.5291 14.2839C13.6889 14.441 13.816 14.6281 13.9031 14.8345C13.9902 15.041 14.0356 15.2626 14.0368 15.4866V20.5313C14.0364 20.5884 14.0246 20.645 14.0022 20.6975C13.9797 20.7501 13.9469 20.7976 13.9059 20.8374C13.8648 20.8771 13.8162 20.9083 13.7629 20.929C13.7096 20.9497 13.6527 20.9596 13.5956 20.9581Z" fill="white"/>
</g>
<defs>
<clipPath id="clip0_402_10972">
<rect width="55" height="55" fill="white"/>
</clipPath>
</defs>
</svg>
