<svg width="20" height="24" viewBox="0 0 20 24" fill="none" xmlns="http://www.w3.org/2000/svg">
<g clip-path="url(#clip0_402_10953)">
<path d="M16.7308 21.223H3.43928C3.32758 21.223 3.22046 21.1786 3.14148 21.0996C3.0625 21.0206 3.01813 20.9135 3.01813 20.8018C3.01813 20.6901 3.0625 20.583 3.14148 20.504C3.22046 20.425 3.32758 20.3807 3.43928 20.3807H16.7308C16.8425 20.3807 16.9496 20.425 17.0286 20.504C17.1076 20.583 17.152 20.6901 17.152 20.8018C17.152 20.9135 17.1076 21.0206 17.0286 21.0996C16.9496 21.1786 16.8425 21.223 16.7308 21.223Z" fill="white"/>
<path d="M16.9106 0.842213C17.1965 0.841105 17.4797 0.896404 17.7442 1.00494C18.0086 1.11348 18.2491 1.27313 18.4517 1.47473C18.6544 1.67634 18.8153 1.91595 18.9252 2.17983C19.0351 2.44372 19.0918 2.72669 19.0922 3.01255V20.9817C19.0914 21.557 18.8625 22.1086 18.4557 22.5155C18.0488 22.9224 17.4972 23.1513 16.9219 23.152H2.35564C1.95548 23.1513 1.57183 22.9924 1.28834 22.7099C1.00486 22.4275 0.844526 22.0444 0.842303 21.6443V3.01255C0.843046 2.43717 1.07194 1.88556 1.4788 1.47871C1.88565 1.07185 2.43726 0.842956 3.01264 0.842213H16.9106ZM16.9106 -8.92731e-05H3.01264C2.61691 -0.000458595 2.22499 0.0772135 1.85931 0.228482C1.49364 0.37975 1.16138 0.601645 0.881558 0.881467C0.601735 1.16129 0.37984 1.49355 0.228572 1.85922C0.077304 2.2249 -0.000368011 2.61682 1.31089e-06 3.01255V21.6443C1.31089e-06 22.269 0.248184 22.8682 0.689952 23.31C1.13172 23.7517 1.73089 23.9999 2.35564 23.9999H16.9106C17.3072 24.0014 17.7001 23.9246 18.067 23.7738C18.4338 23.6231 18.7672 23.4014 19.0481 23.1215C19.3291 22.8416 19.552 22.509 19.7041 22.1428C19.8562 21.7765 19.9345 21.3839 19.9345 20.9873V3.01816C19.9356 2.62101 19.8581 2.22757 19.7065 1.86051C19.5548 1.49345 19.3321 1.16003 19.051 0.879459C18.7699 0.598893 18.436 0.37673 18.0687 0.225775C17.7014 0.0748195 17.3078 -0.00194322 16.9106 -8.92731e-05Z" fill="white"/>
<path d="M6.35817 7.72274C6.7613 7.43256 7.27328 7.28142 7.79647 7.29814C9.71154 7.29814 10 8.41879 10 9.33411V10.3329H8.64183V9.63689C8.64183 8.56497 8.41346 8.15777 7.59215 8.15777C6.69071 8.15777 6.36619 8.56497 6.35817 9.63689V12H5V6H6.35817V7.72274Z" fill="white"/>
<path d="M13.0067 11.9049V11.302C12.9226 11.5203 12.7783 11.7045 12.5939 11.8292C12.4095 11.9539 12.194 12.0127 11.9775 11.9977C11.4068 11.9977 11 11.5869 11 10.7687V8.09526H11.9927V10.5633C11.9927 11.0304 12.1536 11.1828 12.3631 11.1828C12.9004 11.1828 13.0067 10.3877 13.0067 9.95372V8.09526H13.9964V8.69487C14.0785 8.47744 14.2212 8.29365 14.4042 8.16943C14.5872 8.04521 14.8013 7.98682 15.0164 8.0025C15.5871 8.0025 16 8.41328 16 9.23154V11.9049H15.0103V9.44024C15.0103 8.97314 14.8494 8.82075 14.64 8.82075C14.1026 8.82075 13.9994 9.61582 13.9994 10.0498V11.9082L13.0067 11.9049Z" fill="white"/>
</g>
<defs>
<clipPath id="clip0_402_10953">
<rect width="19.9233" height="24" fill="white"/>
</clipPath>
</defs>
</svg>
