<svg width="24" height="24" viewBox="0 0 24 24" fill="none" xmlns="http://www.w3.org/2000/svg">
<g clip-path="url(#clip0_402_10960)">
<path d="M5.14609 5.14892C5.32555 5.14967 5.49744 5.22128 5.62433 5.34817C5.75122 5.47507 5.82284 5.64696 5.82358 5.82641V22.4813C5.82284 22.6608 5.75122 22.8327 5.62433 22.9595C5.49744 23.0864 5.32555 23.1581 5.14609 23.1588H1.52436C1.43502 23.1584 1.34663 23.1405 1.26423 23.1059C1.18183 23.0714 1.10704 23.021 1.04413 22.9575C0.98122 22.8941 0.93142 22.8189 0.897574 22.7362C0.863728 22.6535 0.846499 22.565 0.84687 22.4757V5.82076C0.847613 5.64131 0.91923 5.46942 1.04612 5.34253C1.17302 5.21564 1.34491 5.14402 1.52436 5.14328H5.14609V5.14892ZM5.14609 4.29642H1.52436C1.3237 4.29642 1.12502 4.33603 0.939708 4.41299C0.754397 4.48995 0.586103 4.60273 0.444481 4.74488C0.302858 4.88703 0.190693 5.05574 0.11442 5.24133C0.0381472 5.42693 -0.000732715 5.62575 1.0456e-05 5.82641V22.4813C0.0029907 22.8836 0.164906 23.2685 0.450454 23.5519C0.736002 23.8353 1.12202 23.9944 1.52436 23.9944H5.14609C5.34627 23.9944 5.54449 23.9549 5.72944 23.8783C5.91438 23.8017 6.08242 23.6894 6.22397 23.5479C6.36552 23.4063 6.4778 23.2383 6.55441 23.0534C6.63101 22.8684 6.67044 22.6702 6.67044 22.47V5.81512C6.67044 5.41084 6.50984 5.02311 6.22397 4.73724C5.9381 4.45137 5.55038 4.29077 5.14609 4.29077V4.29642Z" fill="white"/>
<path d="M12.6775 0.84686C12.8569 0.847603 13.0288 0.919219 13.1557 1.04611C13.2826 1.173 13.3542 1.3449 13.355 1.52435V22.4757C13.3542 22.6551 13.2826 22.827 13.1557 22.9539C13.0288 23.0808 12.8569 23.1524 12.6775 23.1531H9.05575C8.87607 23.1531 8.70375 23.0818 8.57669 22.9547C8.44964 22.8277 8.37826 22.6553 8.37826 22.4757V1.52435C8.37826 1.43538 8.39579 1.34728 8.42983 1.26508C8.46388 1.18289 8.51378 1.1082 8.57669 1.04529C8.70375 0.918238 8.87607 0.84686 9.05575 0.84686H12.6775ZM12.6775 0H9.05575C8.65147 0 8.26374 0.1606 7.97787 0.446471C7.692 0.732342 7.5314 1.12007 7.5314 1.52435V22.4757C7.5314 22.8799 7.692 23.2677 7.97787 23.5535C8.26374 23.8394 8.65147 24 9.05575 24H12.6775C13.0818 24 13.4695 23.8394 13.7554 23.5535C14.0412 23.2677 14.2018 22.8799 14.2018 22.4757V1.52435C14.2018 1.12007 14.0412 0.732342 13.7554 0.446471C13.4695 0.1606 13.0818 0 12.6775 0Z" fill="white"/>
<path d="M20.0931 4.38678C20.2587 4.3871 20.4183 4.44825 20.5416 4.5586C20.665 4.66894 20.7435 4.82078 20.7622 4.98522L22.7777 21.9422C22.789 22.0307 22.7823 22.1205 22.758 22.2064C22.7338 22.2922 22.6925 22.3723 22.6365 22.4418C22.5817 22.5119 22.5136 22.5703 22.4361 22.6139C22.3586 22.6575 22.2732 22.6854 22.1849 22.6959L18.5886 23.1221H18.5067C18.3411 23.1213 18.1814 23.06 18.0577 22.9498C17.934 22.8397 17.8548 22.6881 17.8349 22.5237L15.808 5.57238C15.7875 5.39375 15.8382 5.21422 15.9492 5.07273C16.0042 5.00311 16.0724 4.94507 16.1499 4.90195C16.2274 4.85883 16.3127 4.83148 16.4008 4.8215L19.9972 4.39242H20.0819L20.0931 4.38678ZM20.0819 3.54556C20.0226 3.54556 19.9633 3.54556 19.9012 3.54556L16.3133 3.98028C16.1144 4.00374 15.9221 4.06616 15.7473 4.16399C15.5725 4.26182 15.4187 4.39314 15.2947 4.55043C15.1707 4.70773 15.0789 4.88792 15.0246 5.08071C14.9703 5.2735 14.9545 5.47511 14.9781 5.674L16.9965 22.631C17.04 23.001 17.2178 23.3422 17.4962 23.5898C17.7745 23.8375 18.1341 23.9744 18.5067 23.9746C18.5678 23.9788 18.6291 23.9788 18.6902 23.9746L22.3006 23.5371C22.7019 23.489 23.0676 23.2836 23.3174 22.966C23.5673 22.6484 23.6808 22.2446 23.633 21.8434L21.6034 4.88642C21.5592 4.51588 21.3809 4.17433 21.1022 3.92625C20.8234 3.67817 20.4635 3.54075 20.0903 3.53992L20.0819 3.54556Z" fill="white"/>
<path d="M4.57868 8.06207H2.09173C1.97943 8.06207 1.87173 8.01746 1.79232 7.93805C1.71292 7.85864 1.6683 7.75094 1.6683 7.63864C1.6683 7.52634 1.71292 7.41864 1.79232 7.33923C1.87173 7.25982 1.97943 7.21521 2.09173 7.21521H4.57868C4.69098 7.21521 4.79868 7.25982 4.87809 7.33923C4.9575 7.41864 5.00211 7.52634 5.00211 7.63864C5.00211 7.75094 4.9575 7.85864 4.87809 7.93805C4.79868 8.01746 4.69098 8.06207 4.57868 8.06207Z" fill="white"/>
<path d="M12.1073 3.76287H9.62314C9.51084 3.76287 9.40314 3.71826 9.32373 3.63885C9.24432 3.55945 9.19971 3.45175 9.19971 3.33944C9.19971 3.22714 9.24432 3.11944 9.32373 3.04004C9.40314 2.96063 9.51084 2.91602 9.62314 2.91602H12.1073C12.2196 2.91602 12.3273 2.96063 12.4067 3.04004C12.4861 3.11944 12.5307 3.22714 12.5307 3.33944C12.5307 3.45175 12.4861 3.55945 12.4067 3.63885C12.3273 3.71826 12.2196 3.76287 12.1073 3.76287Z" fill="white"/>
<path d="M12.1383 21.0839H9.65137C9.53907 21.0839 9.43136 21.0393 9.35196 20.9599C9.27255 20.8805 9.22794 20.7728 9.22794 20.6605C9.22794 20.5482 9.27255 20.4405 9.35196 20.3611C9.43136 20.2817 9.53907 20.2371 9.65137 20.2371H12.1383C12.2506 20.2371 12.3583 20.2817 12.4377 20.3611C12.5171 20.4405 12.5617 20.5482 12.5617 20.6605C12.5617 20.7728 12.5171 20.8805 12.4377 20.9599C12.3583 21.0393 12.2506 21.0839 12.1383 21.0839Z" fill="white"/>
<path d="M4.57874 10.1878H2.0918C1.97949 10.1878 1.87179 10.1432 1.79239 10.0638C1.71298 9.98434 1.66837 9.87664 1.66837 9.76434C1.66837 9.65204 1.71298 9.54434 1.79239 9.46493C1.87179 9.38552 1.97949 9.34091 2.0918 9.34091H4.57874C4.69104 9.34091 4.79874 9.38552 4.87815 9.46493C4.95756 9.54434 5.00217 9.65204 5.00217 9.76434C5.00217 9.87664 4.95756 9.98434 4.87815 10.0638C4.79874 10.1432 4.69104 10.1878 4.57874 10.1878Z" fill="white"/>
<path d="M17.1856 7.69514C17.0733 7.70188 16.9629 7.66373 16.8787 7.58909C16.7946 7.51444 16.7435 7.40942 16.7368 7.29712C16.73 7.18482 16.7682 7.07444 16.8428 6.99027C16.9175 6.9061 17.0225 6.85502 17.1348 6.84828L19.6584 6.54906C19.7707 6.53558 19.8838 6.56727 19.9727 6.63715C20.0617 6.70703 20.1192 6.80938 20.1327 6.92168C20.1461 7.03398 20.1145 7.14703 20.0446 7.23597C19.9747 7.32491 19.8723 7.38244 19.76 7.39592L17.2364 7.69514H17.1856Z" fill="white"/>
<path d="M18.9132 21.2252C18.8009 21.2319 18.6905 21.1938 18.6063 21.1191C18.5222 21.0445 18.4711 20.9394 18.4644 20.8271C18.4576 20.7148 18.4958 20.6045 18.5704 20.5203C18.6451 20.4361 18.7501 20.385 18.8624 20.3783L21.2533 20.096C21.3089 20.0895 21.3653 20.0941 21.4191 20.1093C21.473 20.1246 21.5233 20.1504 21.5672 20.1851C21.6111 20.2198 21.6478 20.2629 21.675 20.3118C21.7023 20.3607 21.7197 20.4144 21.7262 20.47C21.7327 20.5256 21.7281 20.582 21.7128 20.6358C21.6976 20.6897 21.6718 20.74 21.6371 20.7839C21.6024 20.8278 21.5593 20.8645 21.5104 20.8917C21.4615 20.919 21.4077 20.9364 21.3521 20.9429L18.964 21.2252H18.9132Z" fill="white"/>
</g>
<defs>
<clipPath id="clip0_402_10960">
<rect width="23.6302" height="24" fill="white"/>
</clipPath>
</defs>
</svg>
