<svg width="19" height="20" viewBox="0 0 19 20" fill="none" xmlns="http://www.w3.org/2000/svg">
<g clip-path="url(#clip0_278_8598)">
<path d="M16.1512 20H4.75199C4.04063 20 3.35841 19.7174 2.85541 19.2144C2.35241 18.7114 2.06982 18.0292 2.06982 17.3178V14.6133C2.06982 14.4948 2.11692 14.3811 2.20076 14.2972C2.28459 14.2134 2.39829 14.1663 2.51685 14.1663C2.63541 14.1663 2.74911 14.2134 2.83295 14.2972C2.91678 14.3811 2.96388 14.4948 2.96388 14.6133V17.3178C2.96388 17.7921 3.15227 18.2469 3.4876 18.5822C3.82294 18.9176 4.27775 19.1059 4.75199 19.1059H16.1512C16.6254 19.1059 17.0802 18.9176 17.4156 18.5822C17.7509 18.2469 17.9393 17.7921 17.9393 17.3178V2.68216C17.9393 2.20793 17.7509 1.75312 17.4156 1.41778C17.0802 1.08244 16.6254 0.894055 16.1512 0.894055H4.75199C4.27775 0.894055 3.82294 1.08244 3.4876 1.41778C3.15227 1.75312 2.96388 2.20793 2.96388 2.68216V5.38444C2.96388 5.503 2.91678 5.61671 2.83295 5.70054C2.74911 5.78437 2.63541 5.83147 2.51685 5.83147C2.39829 5.83147 2.28459 5.78437 2.20076 5.70054C2.11692 5.61671 2.06982 5.503 2.06982 5.38444V2.68216C2.06982 1.97081 2.35241 1.28859 2.85541 0.785587C3.35841 0.282584 4.04063 0 4.75199 0L16.1512 0C16.8625 0 17.5448 0.282584 18.0478 0.785587C18.5508 1.28859 18.8333 1.97081 18.8333 2.68216V17.3178C18.8333 18.0292 18.5508 18.7114 18.0478 19.2144C17.5448 19.7174 16.8625 20 16.1512 20Z" fill="#BAA6B1"/>
<path d="M8.92714 12.8297C8.84234 12.8299 8.75923 12.806 8.6875 12.7608C8.61578 12.7155 8.55841 12.6508 8.52209 12.5742C8.48576 12.4975 8.47199 12.4122 8.48236 12.328C8.49274 12.2438 8.52685 12.1643 8.5807 12.0988L10.3219 9.98439L8.57623 7.76713C8.50987 7.67356 8.48203 7.55806 8.49846 7.44453C8.51489 7.33099 8.57433 7.22813 8.6645 7.1572C8.75466 7.08628 8.86863 7.05273 8.98284 7.0635C9.09705 7.07427 9.20274 7.12853 9.27806 7.21505L11.0505 9.46584C11.1706 9.61543 11.2361 9.80151 11.2361 9.99333C11.2361 10.1852 11.1706 10.3712 11.0505 10.5208L9.28253 12.6688C9.23931 12.7207 9.18487 12.7622 9.12332 12.7901C9.06177 12.8179 8.99469 12.8315 8.92714 12.8297Z" fill="#BAA6B1"/>
<path d="M10.5722 10.3843H0.447027C0.328468 10.3843 0.214765 10.3372 0.130931 10.2534C0.0470974 10.1695 0 10.0558 0 9.93726C0 9.8187 0.0470974 9.705 0.130931 9.62117C0.214765 9.53733 0.328468 9.49023 0.447027 9.49023H10.5722C10.6908 9.49023 10.8045 9.53733 10.8883 9.62117C10.9721 9.705 11.0192 9.8187 11.0192 9.93726C11.0192 10.0558 10.9721 10.1695 10.8883 10.2534C10.8045 10.3372 10.6908 10.3843 10.5722 10.3843Z" fill="#BAA6B1"/>
</g>
<defs>
<clipPath id="clip0_278_8598">
<rect width="18.8333" height="20" fill="white"/>
</clipPath>
</defs>
</svg>
