<svg width="47" height="44" viewBox="0 0 47 44" fill="none" xmlns="http://www.w3.org/2000/svg">
<g filter="url(#filter0_d_402_11131)">
<path d="M6 0H43V40H6V0Z" fill="#FA9372"/>
</g>
<path d="M1 19.5C0.723858 19.5 0.5 19.7239 0.5 20C0.5 20.2761 0.723858 20.5 1 20.5L1 19.5ZM27.3536 20.3536C27.5488 20.1583 27.5488 19.8417 27.3536 19.6464L24.1716 16.4645C23.9763 16.2692 23.6597 16.2692 23.4645 16.4645C23.2692 16.6597 23.2692 16.9763 23.4645 17.1716L26.2929 20L23.4645 22.8284C23.2692 23.0237 23.2692 23.3403 23.4645 23.5355C23.6597 23.7308 23.9763 23.7308 24.1716 23.5355L27.3536 20.3536ZM1 20.5L27 20.5L27 19.5L1 19.5L1 20.5Z" fill="white"/>
<defs>
<filter id="filter0_d_402_11131" x="6" y="0" width="41" height="44" filterUnits="userSpaceOnUse" color-interpolation-filters="sRGB">
<feFlood flood-opacity="0" result="BackgroundImageFix"/>
<feColorMatrix in="SourceAlpha" type="matrix" values="0 0 0 0 0 0 0 0 0 0 0 0 0 0 0 0 0 0 127 0" result="hardAlpha"/>
<feOffset dx="4" dy="4"/>
<feComposite in2="hardAlpha" operator="out"/>
<feColorMatrix type="matrix" values="0 0 0 0 0 0 0 0 0 0 0 0 0 0 0 0 0 0 0.1 0"/>
<feBlend mode="normal" in2="BackgroundImageFix" result="effect1_dropShadow_402_11131"/>
<feBlend mode="normal" in="SourceGraphic" in2="effect1_dropShadow_402_11131" result="shape"/>
</filter>
</defs>
</svg>
