<svg width="191" height="55" viewBox="0 0 191 55" fill="none" xmlns="http://www.w3.org/2000/svg">
<path d="M4.79666 18.6023C0.917374 21.5301 0.478212 26.8 0.331824 31.2649C0.170487 36.5908 0.824596 41.91 2.27147 47.0382C2.34466 47.2577 2.71063 47.148 2.63744 46.9284C1.28697 42.1674 0.62154 37.2383 0.661197 32.2896C0.734391 27.715 0.990569 21.9326 4.97964 18.8951C5.16263 18.7853 4.97964 18.4559 4.79666 18.6023Z" fill="white"/>
<path d="M3.62535 20.2491C6.00416 21.3104 5.82117 24.2381 5.78458 26.3973C5.82174 28.9215 5.63805 31.4441 5.23562 33.9363C4.43049 38.328 2.67383 42.5 2.30786 46.9649C2.30786 47.0134 2.32714 47.0599 2.36146 47.0943C2.39577 47.1286 2.44232 47.1479 2.49085 47.1479C2.53938 47.1479 2.58592 47.1286 2.62024 47.0943C2.65455 47.0599 2.67383 47.0134 2.67383 46.9649C3.0764 41.9511 5.23562 37.2667 5.85777 32.2529C6.13871 29.7014 6.23656 27.133 6.15055 24.5675C6.11395 22.7376 5.63819 20.7614 3.84493 19.9563C3.62535 19.8465 3.44237 20.1759 3.62535 20.2491Z" fill="white"/>
<path d="M1.75877 23.5425C2.92987 24.3843 4.32056 24.8966 5.78444 24.5307C5.81413 24.536 5.84468 24.534 5.87338 24.5247C5.90209 24.5154 5.92805 24.4991 5.94895 24.4774C5.96986 24.4556 5.98506 24.4291 5.99321 24.4C6.00136 24.371 6.0022 24.3403 5.99565 24.3109C5.98911 24.2814 5.97538 24.2541 5.9557 24.2312C5.93601 24.2083 5.91098 24.1907 5.88283 24.1799C5.85468 24.169 5.82429 24.1653 5.79435 24.169C5.76441 24.1728 5.73586 24.1838 5.71124 24.2013C4.32056 24.5307 3.03966 24.0183 1.94175 23.2132C1.92013 23.2011 1.89635 23.1935 1.87177 23.1907C1.84719 23.1879 1.82229 23.1899 1.7985 23.1967C1.77472 23.2035 1.7525 23.2149 1.73312 23.2303C1.71375 23.2457 1.69759 23.2647 1.68557 23.2864C1.67356 23.308 1.66592 23.3318 1.6631 23.3563C1.66027 23.3809 1.66232 23.4058 1.66911 23.4296C1.67591 23.4534 1.68733 23.4756 1.70271 23.495C1.71809 23.5144 1.73714 23.5305 1.75877 23.5425Z" fill="white"/>
<path d="M2.23409 22.4449C2.70561 22.8809 3.27066 23.2033 3.88597 23.3872C4.50128 23.5712 5.15054 23.6119 5.784 23.5062C6.00359 23.4696 5.93039 23.1403 5.67421 23.1769C5.10356 23.254 4.52294 23.2056 3.97297 23.0349C3.423 22.8642 2.91696 22.5754 2.49027 22.1887C2.30729 22.0423 2.05111 22.2985 2.23409 22.4449Z" fill="white"/>
<path d="M1.20967 25.9212C1.68543 26.4701 2.52716 26.5067 3.2225 26.6165C4.1522 26.8001 5.1145 26.7241 6.00388 26.3969C6.22346 26.3237 6.11367 25.9578 5.89408 26.031C5.19836 26.3115 4.44318 26.4122 3.69826 26.3237C3.07612 26.2505 1.94161 26.1773 1.46585 25.665C1.45012 25.644 1.43007 25.6267 1.40705 25.6141C1.38403 25.6016 1.35858 25.5941 1.33243 25.5923C1.30628 25.5904 1.28004 25.5942 1.25547 25.6033C1.23091 25.6125 1.20861 25.6269 1.19007 25.6454C1.17153 25.6639 1.1572 25.6862 1.14803 25.7108C1.13886 25.7354 1.13508 25.7616 1.13693 25.7878C1.13879 25.8139 1.14625 25.8393 1.1588 25.8624C1.17135 25.8854 1.1887 25.9054 1.20967 25.9212Z" fill="white"/>
<path d="M0.95373 26.9097C1.53928 27.6417 2.49081 27.8246 3.40573 27.9344C4.32066 28.0442 5.45516 28.1906 6.04071 27.7148C6.62627 27.2391 5.96752 27.3123 5.78454 27.4587C5.60155 27.6051 3.7351 27.6051 3.14955 27.5319C2.564 27.4587 1.68567 27.2391 1.20991 26.6535C0.73415 26.068 0.807342 26.7267 0.95373 26.9097Z" fill="white"/>
<path d="M0.660608 30.3864C2.19768 31.6307 4.17392 32.0698 5.78419 30.6792C5.96717 30.5328 5.71099 30.2766 5.52801 30.423C4.06413 31.6673 2.27087 31.2281 0.916786 30.0936C0.733801 29.9472 0.477623 30.24 0.660608 30.3864Z" fill="white"/>
<path d="M0.660897 31.3015C1.75881 32.5824 4.54018 33.168 5.74788 31.8139C5.76885 31.7982 5.7862 31.7781 5.79875 31.7551C5.8113 31.7321 5.81876 31.7066 5.82061 31.6805C5.82247 31.6543 5.81869 31.6281 5.80952 31.6035C5.80036 31.579 5.78602 31.5567 5.76748 31.5381C5.74894 31.5196 5.72664 31.5053 5.70207 31.4961C5.67751 31.4869 5.65127 31.4831 5.62512 31.485C5.59897 31.4869 5.57352 31.4943 5.5505 31.5069C5.52748 31.5194 5.50743 31.5368 5.4917 31.5577C4.46698 32.7288 1.8686 32.1799 0.917075 31.0454C0.770687 30.8624 0.514509 31.1186 0.660897 31.3015Z" fill="white"/>
<path d="M0.623987 34.3385C1.79509 35.2534 4.02751 35.7291 5.3084 34.8142C5.49139 34.6678 5.3084 34.3751 5.12542 34.4849C4.02751 35.29 1.90488 34.8874 0.880165 34.0823C0.69718 33.9359 0.441002 34.1921 0.623987 34.3385Z" fill="white"/>
<path d="M1.02681 39.865C1.72215 40.6702 2.74687 40.7433 3.73499 40.597C3.95457 40.5604 3.88137 40.231 3.62519 40.231C2.78346 40.3774 1.86854 40.3042 1.28299 39.6088C1.26726 39.5879 1.24721 39.5705 1.22419 39.558C1.20117 39.5454 1.17572 39.538 1.14957 39.5361C1.12342 39.5342 1.09717 39.538 1.07261 39.5472C1.04805 39.5564 1.02575 39.5707 1.00721 39.5892C0.98867 39.6078 0.974334 39.6301 0.965167 39.6546C0.955999 39.6792 0.952215 39.7054 0.954074 39.7316C0.955932 39.7577 0.96339 39.7832 0.975939 39.8062C0.988487 39.8292 1.00584 39.8493 1.02681 39.865Z" fill="white"/>
<path d="M8.27298 19.2239C9.2245 20.395 9.62706 21.7857 9.88324 23.213C10.17 24.6601 10.3292 26.1296 10.359 27.6046C10.359 30.6788 9.40748 33.6065 8.12659 36.3513C8.0168 36.5709 8.34617 36.7539 8.45596 36.5343C9.77345 33.6431 10.7982 30.5324 10.725 27.2753C10.6518 24.0181 10.3224 21.1636 8.52916 18.9677C8.38277 18.7848 8.12659 19.0409 8.27298 19.2239Z" fill="white"/>
<path d="M7.21122 34.8881C8.00337 36.615 8.28283 38.5331 8.01635 40.4142L8.38232 40.3044C7.69318 39.4135 6.83507 38.6674 5.85713 38.1086C5.82282 38.0976 5.78603 38.0969 5.75135 38.1067C5.71668 38.1165 5.68567 38.1364 5.66221 38.1637C5.63876 38.1911 5.62391 38.2248 5.61953 38.2605C5.61514 38.2963 5.62141 38.3326 5.63755 38.3648C6.51588 40.0482 6.2231 41.8781 6.47928 43.7079C6.7062 45.0156 7.27429 46.2401 8.12615 47.2578C9.07767 48.3924 10.2488 49.0877 11.4565 49.9294C12.6642 50.7712 13.5425 51.5031 12.9935 52.6376C12.8046 52.9556 12.5141 53.2007 12.1689 53.3335C11.8237 53.4663 11.4438 53.479 11.0905 53.3695C10.8535 53.2595 10.6485 53.0908 10.4948 52.8795C10.3411 52.6682 10.2439 52.4212 10.2122 52.1618C10.2358 51.8033 10.3356 51.454 10.505 51.1371C10.6147 50.9541 10.322 50.7346 10.2122 50.9541C10.1024 51.1737 9.59002 52.5644 10.0658 53.2964C10.5415 54.0283 11.6029 53.8453 12.2616 53.7355C12.9204 53.6257 13.3595 53.0402 13.4327 52.3082C13.5059 51.5763 12.9935 50.6614 12.2616 50.0758C11.5297 49.4903 10.2854 48.8315 9.37044 48.0264C8.51987 47.2866 7.83413 46.3764 7.35761 45.3548C6.33289 43.0858 7.13803 40.4508 5.93033 38.1818L5.67415 38.438C6.60213 38.9466 7.41264 39.6449 8.05295 40.4874C8.16274 40.6338 8.38232 40.5972 8.38232 40.4142C8.63639 38.4699 8.34496 36.4933 7.54059 34.7051C7.4308 34.4855 7.13803 34.6685 7.21122 34.8881Z" fill="white"/>
<path d="M3.03965 43.6711C3.80819 45.6473 5.01589 47.9896 6.73595 49.307C7.22509 49.6616 7.76906 49.9336 8.34622 50.1122C8.98771 50.2505 9.60462 50.4849 10.1761 50.8075L11.7131 51.7956C11.7341 51.7799 11.7515 51.7599 11.764 51.7368C11.7766 51.7138 11.784 51.6884 11.7859 51.6622C11.7877 51.6361 11.7839 51.6098 11.7748 51.5853C11.7656 51.5607 11.7513 51.5384 11.7327 51.5199C11.7142 51.5013 11.6919 51.487 11.6673 51.4778C11.6428 51.4687 11.6165 51.4649 11.5904 51.4667C11.5642 51.4686 11.5388 51.476 11.5158 51.4886C11.4927 51.5011 11.4727 51.5185 11.457 51.5395C11.1276 51.8322 10.8348 52.2348 11.091 52.674C11.1773 52.8402 11.3241 52.967 11.5011 53.0283C11.6781 53.0895 11.8719 53.0806 12.0425 53.0033C13.177 52.4178 11.3106 51.0271 10.8348 50.7709C10.1444 50.3315 9.39187 49.9984 8.6024 49.7828C7.96359 49.6305 7.36468 49.3435 6.84574 48.9411C5.27207 47.5504 4.13756 45.501 3.40562 43.5979C3.33243 43.3783 2.96646 43.4515 3.03965 43.6711Z" fill="white"/>
<path d="M19.8376 45.0983C19.4562 45.9149 18.902 46.639 18.2132 47.2203C17.5245 47.8017 16.7176 48.2264 15.8485 48.4652C14.3846 48.8678 12.8475 48.6482 11.6032 49.6363C11.4202 49.7827 11.6764 50.0389 11.8594 49.8925C12.7377 49.1971 13.6893 49.2337 14.7506 49.0873C15.5302 48.9579 16.2919 48.7368 17.0196 48.4286C18.3994 47.7851 19.503 46.6685 20.1303 45.2812C20.2401 45.0983 19.9108 44.9153 19.8376 45.0983Z" fill="white"/>
<path d="M20.4231 46.0501C20.3865 46.8918 20.3499 48.0629 19.6912 48.6851C19.0393 49.267 18.2633 49.6925 17.4221 49.9294C15.9583 50.3685 14.4212 50.3685 12.9207 50.6979C12.7011 50.7711 12.8109 51.1371 13.0305 51.0639C14.897 50.6247 16.9464 50.6979 18.703 49.8196C19.2886 49.4902 20.0571 49.051 20.3499 48.4289C20.6427 47.8067 20.7525 46.8186 20.7891 46.0501C20.8257 45.2815 20.4597 45.8305 20.4231 46.0501Z" fill="white"/>
<path d="M5.12531 18.5656C4.1006 17.3213 2.8197 15.1621 3.47845 13.5152H3.11248C3.44185 14.5034 3.88101 15.7477 4.94233 16.1502C6.00364 16.5528 6.15003 16.077 6.11343 15.3085C6.07684 14.54 5.01552 13.5152 4.21039 13.0761C2.97893 12.3749 1.663 11.8338 0.29451 11.4658V11.7952C0.926504 11.4189 1.65478 11.2357 2.38961 11.2682C3.12443 11.3007 3.83368 11.5475 4.42997 11.9782C4.53976 12.0514 4.64955 11.9416 4.68615 11.8684C5.16191 10.6607 6.4794 10.4045 7.54071 10.9169C8.01701 11.1398 8.41692 11.4983 8.69035 11.9475C8.96378 12.3967 9.09855 12.9166 9.07779 13.4421C9.06774 15.1583 8.42986 16.8116 7.28454 18.0899C7.25319 18.1345 7.23957 18.1892 7.24633 18.2433C7.2531 18.2974 7.27976 18.3471 7.32113 18.3826C7.65985 18.6242 7.96718 18.9069 8.23606 19.2244C8.38245 19.3708 8.63863 19.1146 8.49224 18.9316C8.20713 18.5925 7.87428 18.2967 7.50412 18.0533V18.3461C8.8948 16.7724 10.2489 13.7714 8.968 11.7586C7.6871 9.74576 5.12531 9.63596 4.32018 11.7586L4.57636 11.6488C3.9188 11.199 3.14795 10.9433 2.35192 10.9109C1.55589 10.8786 0.766823 11.0709 0.0749282 11.4658C-0.0348628 11.5756 -0.0348639 11.7952 0.148121 11.8318C1.57687 12.1924 2.94537 12.7595 4.21039 13.5152C4.50702 13.7269 4.7883 13.9592 5.05212 14.2106L5.38149 14.6498C5.82066 15.1621 5.63767 15.4915 4.83254 15.7111C4.0274 15.9306 3.62484 14.0642 3.40525 13.4421C3.40525 13.3935 3.38598 13.347 3.35166 13.3127C3.31734 13.2784 3.2708 13.2591 3.22227 13.2591C3.17374 13.2591 3.1272 13.2784 3.09288 13.3127C3.05856 13.347 3.03928 13.3935 3.03928 13.4421C2.34394 15.1987 3.66143 17.5043 4.79594 18.8218C4.94233 19.0048 5.19851 18.712 5.05212 18.5656H5.12531Z" fill="white"/>
<path d="M17.9706 18.7119C16.8361 19.4438 16.2872 21.1273 15.7748 22.2984C15.0719 23.7919 14.8298 25.4609 15.0795 27.0926C15.2624 28.7761 15.4454 30.4595 15.7748 32.1064C15.9461 33.0356 16.1784 33.9525 16.4701 34.8512C16.6165 35.3269 16.7629 36.2052 17.1655 36.5346C17.5681 36.864 17.3119 36.6078 17.3851 36.5712C17.4329 36.5488 17.4726 36.5122 17.4989 36.4663C17.5251 36.4205 17.5364 36.3676 17.5315 36.315C17.4949 36.2052 17.4217 36.132 17.3485 36.132H17.2753C17.2268 36.132 17.1802 36.1513 17.1459 36.1856C17.1116 36.22 17.0923 36.2665 17.0923 36.315C17.0923 36.3636 17.1116 36.4101 17.1459 36.4444C17.1802 36.4787 17.2268 36.498 17.2753 36.498C17.3485 36.498 16.6531 34.1924 16.5799 33.9728C16.5067 33.7532 16.2506 32.6553 16.1408 32.0332C15.8317 30.5102 15.6118 28.9705 15.482 27.422C15.299 25.7751 15.299 24.421 15.9212 22.8839C16.1889 22.2205 16.4944 21.5728 16.8361 20.9443C17.1655 20.2489 17.4949 19.4804 18.1536 19.0412C18.8124 18.6021 18.1536 18.6021 17.9706 18.7119Z" fill="white"/>
<path d="M18.4468 33.8995C18.2272 34.485 17.7514 34.8876 17.4952 35.4366C17.3159 35.9793 17.2293 36.5485 17.2391 37.12C17.1515 38.4223 17.3257 39.7289 17.7514 40.9627C17.7514 41.0112 17.7707 41.0578 17.805 41.0921C17.8393 41.1264 17.8859 41.1457 17.9344 41.1457C17.9829 41.1457 18.0295 41.1264 18.0638 41.0921C18.0981 41.0578 18.1174 41.0112 18.1174 40.9627C18.6431 39.551 19.3439 38.2108 20.2034 36.9736L19.9106 36.7906L19.6545 37.2298C19.6424 37.2514 19.6348 37.2752 19.632 37.2998C19.6292 37.3244 19.6312 37.3493 19.638 37.3731C19.6448 37.3968 19.6562 37.4191 19.6716 37.4384C19.687 37.4578 19.706 37.474 19.7277 37.486C19.7493 37.498 19.7731 37.5056 19.7976 37.5085C19.8222 37.5113 19.8471 37.5092 19.8709 37.5024C19.8947 37.4956 19.9169 37.4842 19.9363 37.4688C19.9557 37.4535 19.9718 37.4344 19.9838 37.4128L20.2034 36.9736C20.3498 36.754 20.0204 36.6076 19.9106 36.7906C19.0208 38.0473 18.2952 39.4124 17.7514 40.8529H18.1174C17.6915 39.6571 17.5171 38.3863 17.605 37.12C17.6416 36.3881 17.6782 35.7659 18.0808 35.1438C18.3664 34.7942 18.6119 34.4136 18.8127 34.0093C18.8859 33.7897 18.5566 33.6799 18.4468 33.8995Z" fill="white"/>
<path d="M18.776 38.8402C19.4155 40.0191 19.743 41.3418 19.7275 42.6829C19.7275 42.7314 19.7468 42.778 19.7811 42.8123C19.8154 42.8466 19.862 42.8659 19.9105 42.8659C19.959 42.8659 20.0056 42.8466 20.0399 42.8123C20.0742 42.778 20.0935 42.7314 20.0935 42.6829C20.0973 41.2805 19.758 39.8985 19.1054 38.6572C18.9956 38.4376 18.7028 38.6206 18.776 38.8402Z" fill="white"/>
<path d="M21.2646 18.3094C21.228 19.8465 22.6187 21.2006 23.1311 22.5913C23.863 24.5675 23.7898 26.7268 23.7898 28.8128C23.7898 33.4606 23.7166 38.1084 22.3625 42.5733H22.6919L22.6187 42.3537C22.6042 42.3051 22.5709 42.2644 22.5263 42.2404C22.4817 42.2163 22.4294 42.211 22.3808 42.2256C22.3323 42.2401 22.2915 42.2734 22.2675 42.318C22.2435 42.3626 22.2382 42.4149 22.2527 42.4635L22.3625 42.6831C22.3775 42.714 22.4009 42.7401 22.43 42.7583C22.4592 42.7766 22.4928 42.7863 22.5272 42.7863C22.5616 42.7863 22.5953 42.7766 22.6244 42.7583C22.6535 42.7401 22.6769 42.714 22.6919 42.6831C24.046 38.2914 24.1558 33.7168 24.1558 29.1788C24.1558 27.1659 24.229 25.1531 23.7166 23.2134C23.4767 22.3629 23.1195 21.55 22.6553 20.798C22.2161 20.0661 21.594 19.1878 21.6306 18.3094C21.6306 18.2609 21.6113 18.2144 21.577 18.1801C21.5427 18.1457 21.4961 18.1265 21.4476 18.1265C21.3991 18.1265 21.3525 18.1457 21.3182 18.1801C21.2839 18.2144 21.2646 18.2609 21.2646 18.3094Z" fill="white"/>
<path d="M22.6919 21.164C21.3012 20.2125 19.7641 21.2006 19.2152 22.5913C18.6662 23.982 18.959 26.7268 19.1786 28.5932C19.8373 33.3508 21.228 38.0718 22.3991 42.7197C22.4039 42.7437 22.4134 42.7665 22.427 42.7869C22.4407 42.8073 22.4582 42.8247 22.4786 42.8383C22.499 42.8519 22.5218 42.8614 22.5459 42.8661C22.5699 42.8709 22.5947 42.8708 22.6187 42.866C22.6427 42.8612 22.6656 42.8517 22.6859 42.8381C22.7063 42.8245 22.7238 42.807 22.7374 42.7866C22.7509 42.7662 22.7604 42.7433 22.7651 42.7193C22.7699 42.6952 22.7699 42.6705 22.7651 42.6465C21.8136 38.9136 20.7888 35.1807 20.0569 31.4478C19.6394 29.5329 19.3823 27.5865 19.2884 25.6289C19.2518 24.6407 19.2152 23.6526 19.5811 22.7377C19.9471 21.8228 21.3012 20.6517 22.5089 21.4568C22.6919 21.6032 22.8749 21.2738 22.6919 21.164Z" fill="white"/>
<path d="M0.660608 35.6563C1.75852 36.6445 3.73476 36.7908 5.01565 36.0955C5.23523 35.9857 5.05225 35.6929 4.83267 35.8027C4.2034 36.0911 3.50843 36.2058 2.81987 36.135C2.13131 36.0642 1.47422 35.8105 0.916786 35.4002C0.733801 35.2538 0.477623 35.51 0.660608 35.6563Z" fill="white"/>
<path d="M22.2164 11.2464C21.3747 10.4046 20.167 9.59951 18.9227 9.7093C18.3141 9.80187 17.7333 10.0268 17.2211 10.3683C16.7089 10.7097 16.2779 11.1594 15.9583 11.6855C15.2996 12.7468 15.5558 14.1375 15.8851 15.272C16.2732 16.6352 16.975 17.8886 17.9346 18.9317C18.081 19.1147 18.3371 18.8585 18.1908 18.6756C16.8367 17.1751 15.5558 14.7597 15.9949 12.6737C16.2145 11.5025 17.3124 10.551 18.4469 10.1851C19.5814 9.81909 21.0453 10.5876 21.9236 11.5025C21.9576 11.5414 22.0056 11.5651 22.0571 11.5685C22.1086 11.572 22.1593 11.5548 22.1981 11.5208C22.2369 11.4869 22.2607 11.4389 22.2641 11.3874C22.2676 11.3359 22.2504 11.2852 22.2164 11.2464Z" fill="white"/>
<path d="M21.6309 18.3088C21.7041 17.2841 22.4726 16.8084 22.9484 15.9666C23.3026 15.3261 23.5031 14.6119 23.5339 13.8806C23.5304 13.8476 23.5193 13.8157 23.5017 13.7876C23.484 13.7594 23.4602 13.7356 23.432 13.718C23.4038 13.7004 23.372 13.6894 23.3389 13.6859C23.3059 13.6823 23.2724 13.6864 23.2412 13.6976C22.9347 13.9375 22.6527 14.2072 22.3994 14.5028C22.2871 14.7465 22.1524 14.9793 21.9969 15.1981C21.4845 15.1249 21.3381 14.9785 21.5577 14.7223C21.7773 14.4662 21.7041 14.5028 21.7773 14.3564C22.1414 13.7301 22.6266 13.1827 23.2046 12.7461C23.7759 12.3973 24.3913 12.1265 25.0344 11.941C25.0829 11.941 25.1295 11.9217 25.1638 11.8874C25.1981 11.8531 25.2174 11.8065 25.2174 11.758C25.2174 11.7095 25.1981 11.6629 25.1638 11.6286C25.1295 11.5943 25.0829 11.575 25.0344 11.575C24.5641 11.4038 24.0705 11.3051 23.5705 11.2822L22.1798 11.4286C22.1067 11.209 21.7407 11.2822 21.8139 11.5018C21.8871 11.7214 21.9603 11.7946 22.1798 11.8312C22.3994 11.8678 23.168 11.6482 23.3875 11.6482C23.9136 11.6497 24.4348 11.749 24.9246 11.941V11.575C24.0097 11.9044 23.0582 12.2337 22.3994 12.9657C21.7407 13.6976 21.0087 14.4662 20.9721 15.2713C20.9356 16.0764 21.0819 16.0764 21.5577 16.0764C21.6902 16.0481 21.8147 15.9908 21.9223 15.9085C22.0298 15.8262 22.1178 15.7211 22.1798 15.6007C22.5824 15.0151 22.802 14.4662 23.4241 14.027L23.168 13.8806C23.0948 15.1249 22.5824 15.93 21.7773 16.845C21.4426 17.2591 21.2615 17.7764 21.2649 18.3088C21.2649 18.3574 21.2842 18.4039 21.3185 18.4382C21.3528 18.4726 21.3994 18.4918 21.4479 18.4918C21.4964 18.4918 21.543 18.4726 21.5773 18.4382C21.6116 18.4039 21.6309 18.3574 21.6309 18.3088Z" fill="white"/>
<path d="M19.2518 23.8717C20.4229 24.1645 22.6553 24.4939 23.4971 23.3594C23.6435 23.1764 23.3141 22.9934 23.1677 23.1764C23.0213 23.3594 21.777 23.7253 21.1915 23.7619C20.5602 23.7669 19.9316 23.6806 19.325 23.5058C19.2765 23.496 19.2261 23.506 19.1849 23.5335C19.1437 23.5609 19.1151 23.6036 19.1054 23.6521C19.0957 23.7007 19.1057 23.7511 19.1331 23.7922C19.1606 23.8334 19.2033 23.862 19.2518 23.8717Z" fill="white"/>
<path d="M18.9958 24.9703C20.3133 25.6291 22.7653 25.7754 23.8632 24.6043C23.88 24.5851 23.8929 24.5628 23.9011 24.5386C23.9093 24.5144 23.9126 24.4888 23.9109 24.4633C23.9092 24.4378 23.9025 24.4129 23.8912 24.39C23.8799 24.3671 23.8641 24.3467 23.8449 24.3299C23.8257 24.313 23.8033 24.3002 23.7791 24.292C23.7549 24.2838 23.7294 24.2805 23.7039 24.2822C23.6784 24.2839 23.6535 24.2906 23.6306 24.3019C23.6077 24.3132 23.5872 24.3289 23.5704 24.3482C22.6189 25.4095 20.3499 25.2265 19.2154 24.6409C18.9958 24.5311 18.8128 24.8605 18.9958 24.9703Z" fill="white"/>
<path d="M19.1788 27.5686C20.7891 28.0444 22.5091 28.2274 23.8998 27.0929C24.0828 26.9465 23.8266 26.6903 23.6437 26.8367C22.3628 27.8614 20.7525 27.6418 19.252 27.2026C19.228 27.1978 19.2032 27.1978 19.1792 27.2026C19.1552 27.2073 19.1323 27.2168 19.1119 27.2304C19.0915 27.244 19.074 27.2614 19.0604 27.2818C19.0467 27.3022 19.0372 27.325 19.0324 27.349C19.0276 27.3731 19.0276 27.3978 19.0324 27.4218C19.0371 27.4459 19.0466 27.4688 19.0601 27.4891C19.0737 27.5095 19.0912 27.527 19.1116 27.5407C19.1319 27.5543 19.1548 27.5638 19.1788 27.5686Z" fill="white"/>
<path d="M19.3986 28.7028C20.1385 28.963 20.9248 29.0649 21.7065 29.0019C22.4883 28.9388 23.2481 28.7122 23.9367 28.3368C24.1562 28.227 23.9733 27.8977 23.7537 28.0074C23.1113 28.3628 22.4014 28.579 21.67 28.6421C20.9386 28.7051 20.2021 28.6136 19.5084 28.3734C19.47 28.3734 19.4326 28.3855 19.4014 28.408C19.3703 28.4304 19.347 28.4621 19.3348 28.4985C19.3227 28.535 19.3223 28.5743 19.3338 28.611C19.3452 28.6476 19.3679 28.6798 19.3986 28.7028Z" fill="white"/>
<path d="M19.7278 31.1179C20.9721 31.5937 22.985 31.3375 23.9365 30.3494C24.0829 30.1664 23.8267 29.9102 23.6803 30.0932C22.8386 31.0081 20.9355 31.1911 19.8376 30.752C19.6181 30.6788 19.5083 31.0081 19.7278 31.1179Z" fill="white"/>
<path d="M20.0204 32.2893C20.8256 32.5821 21.7771 32.3991 22.5822 32.2161C23.1458 32.1221 23.6545 31.8221 24.0095 31.3744C24.1559 31.1548 23.8265 30.9718 23.6801 31.1914C23.5337 31.411 22.7652 31.8136 22.1796 31.9233C21.5941 32.0331 20.789 32.1795 20.1302 31.9233C20.0817 31.9088 20.0294 31.9141 19.9847 31.9381C19.9401 31.9621 19.9069 32.0029 19.8923 32.0514C19.8778 32.1 19.8831 32.1523 19.9071 32.1969C19.9311 32.2415 19.9719 32.2748 20.0204 32.2893Z" fill="white"/>
<path d="M20.4597 34.6318C20.9721 34.9978 21.6674 34.9612 22.253 34.9612C22.5423 34.9928 22.835 34.9636 23.1123 34.8753C23.3896 34.7871 23.6454 34.6418 23.8632 34.4488C24.0096 34.3024 23.7535 34.0462 23.6071 34.1926C23.4607 34.339 22.5823 34.5952 22.0334 34.5952C21.4844 34.5952 21.0453 34.6318 20.6427 34.339C20.2401 34.0462 20.2767 34.522 20.4597 34.6318Z" fill="white"/>
<path d="M20.7888 36.0224C21.6672 36.2786 22.9847 36.4249 23.7898 35.7662C23.9728 35.6198 23.68 35.3636 23.5336 35.51C23.3872 35.6564 21.6306 35.876 20.862 35.6564C20.6424 35.5832 20.5693 35.9492 20.7888 36.0224Z" fill="white"/>
<path d="M25.6198 11.7586C26.0701 11.7206 26.5235 11.7758 26.9516 11.9206C27.3797 12.0654 27.7735 12.2968 28.1083 12.6003C28.2181 12.6735 28.4011 12.6735 28.4011 12.5271C28.5475 11.5756 29.4258 11.0632 30.3408 10.9534C31.2557 10.8437 32.1706 11.4292 32.6464 12.3807C33.4881 14.0276 32.866 15.9672 32.2438 17.5775C31.6217 19.1878 30.9995 19.8099 31.7315 21.0908C32.4634 22.3717 33.9273 23.3232 35.0252 24.3479C35.064 24.3819 35.1147 24.3991 35.1662 24.3956C35.2177 24.3922 35.2657 24.3685 35.2997 24.3296C35.3336 24.2908 35.3508 24.2401 35.3474 24.1886C35.3439 24.1371 35.3202 24.0891 35.2814 24.0552C34.0371 22.9207 31.0727 21.2372 31.951 19.2244C32.8294 17.2115 33.4881 15.7842 33.4149 13.991C33.3417 12.1977 32.5732 10.8071 30.9629 10.6241C29.3526 10.4411 28.2547 11.0632 28.0718 12.4173L28.3645 12.3441C27.9987 12.0029 27.5655 11.7419 27.0928 11.578C26.6201 11.4142 26.1183 11.351 25.6198 11.3926C25.5712 11.3926 25.5247 11.4119 25.4904 11.4462C25.456 11.4805 25.4368 11.5271 25.4368 11.5756C25.4368 11.6241 25.456 11.6707 25.4904 11.705C25.5247 11.7393 25.5712 11.7586 25.6198 11.7586Z" fill="white"/>
<path d="M26.6074 13.2594C26.4366 13.9523 26.498 14.6822 26.7823 15.3367C27.0666 15.9913 27.5581 16.5344 28.1811 16.8825V16.5897C26.7538 17.3217 28.1079 19.9201 28.6934 20.835C29.9743 22.738 31.914 23.9823 33.8536 25.1168C34.0366 25.2266 34.2196 24.9339 34.0366 24.7875C32.5361 23.9091 31.0356 22.9942 29.8645 21.7499C29.3278 21.1674 28.8723 20.5149 28.5104 19.8103C28.2177 19.1515 27.4491 17.3949 28.3641 16.8825C28.5104 16.8459 28.5104 16.6629 28.3641 16.5897C27.821 16.2678 27.3917 15.7847 27.1359 15.2075C26.8801 14.6303 26.8105 13.9878 26.9368 13.3692C27.01 13.113 26.644 13.0398 26.6074 13.2594Z" fill="white"/>
<path d="M25.6195 11.7588C26.4613 12.0516 27.1566 12.4175 27.5958 13.2227C27.925 13.9172 28.1471 14.6575 28.2545 15.4185L28.5107 15.1989C27.7788 14.6866 27.3762 13.8814 27.0102 13.1129C26.9004 12.8933 26.6077 13.0763 26.6809 13.2959C27.12 14.1376 27.5592 14.9427 28.3277 15.5283C28.4741 15.6015 28.6205 15.4551 28.6205 15.3087C28.4375 14.3938 28.2545 13.4423 27.7056 12.6737C27.1821 12.0674 26.4966 11.623 25.7293 11.3928C25.6808 11.3783 25.6285 11.3836 25.5839 11.4076C25.5393 11.4316 25.506 11.4724 25.4915 11.5209C25.4769 11.5694 25.4822 11.6218 25.5062 11.6664C25.5303 11.711 25.571 11.7442 25.6195 11.7588Z" fill="white"/>
<path d="M28.1453 17.8338C28.956 17.63 29.7041 17.2296 30.3233 16.6678C30.9425 16.1061 31.4136 15.4005 31.6952 14.6133C31.805 14.3937 31.439 14.2839 31.3658 14.5035C31.0972 15.2372 30.6534 15.8942 30.073 16.4172C29.4926 16.9402 28.7931 17.3135 28.0355 17.5044C27.8159 17.541 27.9257 17.907 28.1453 17.8338Z" fill="white"/>
<path d="M28.2182 19.2612C29.5356 19.4442 30.7799 18.3097 31.2557 17.2118C31.3655 16.9922 31.0361 16.8092 30.9629 17.0288C30.5238 17.9437 29.4625 19.0782 28.3279 18.8953C28.0718 18.8587 27.9986 19.2246 28.2182 19.2612Z" fill="white"/>
<path d="M33.8911 25.19C35.0988 25.7389 37.4044 26.6905 37.1483 28.3007C37.0385 28.9961 36.4895 29.8012 36.1967 30.4599C35.9297 30.9972 35.7211 31.5616 35.5746 32.1434C35.1354 34.266 36.0869 36.3521 37.624 37.8159C37.7704 37.9989 38.0266 37.7427 37.8802 37.5598C36.7823 36.4984 35.9405 35.1444 35.8308 33.5707C35.721 31.997 36.4895 30.7161 37.1117 29.3254C37.4776 28.5203 37.8436 27.7152 37.2214 26.9466C36.5993 26.1781 35.1354 25.373 34.0741 24.8972C33.8545 24.7874 33.6715 25.1168 33.8911 25.19Z" fill="white"/>
<path d="M34.0005 24.9699C30.1944 26.5801 27.3398 30.3496 27.1934 34.5217C27.0471 38.6937 28.8769 43.0854 32.4268 44.8786C35.9767 46.6719 40.405 46.4157 43.4425 44.2199C46.4801 42.0241 47.5414 38.218 46.8826 34.7413C46.4975 32.7191 45.6079 30.8269 44.2964 29.2403C42.9849 27.6536 41.2939 26.4239 39.3803 25.6652C39.1607 25.592 39.0875 25.9214 39.3071 26.0312C45.6017 28.5198 49.7006 37.8154 44.1745 43.1586C41.5029 45.7204 37.3674 46.1229 33.9639 45.0616C29.9748 43.8173 28.0352 39.755 27.6326 35.8392C27.1203 31.3377 30.0846 27.0193 34.1835 25.2992C34.4031 25.1894 34.1835 24.8601 34.0005 24.9699Z" fill="white"/>
<path d="M35.0986 24.4213C35.7147 24.7629 36.3501 25.0684 37.0016 25.3362C37.2212 25.4094 37.331 25.0434 37.1114 24.9703C36.8918 24.8971 35.9037 24.4213 35.2816 24.1285C34.6594 23.8357 34.879 24.3115 35.0986 24.4213Z" fill="white"/>
<path d="M37.0379 25.3727C37.8575 25.5662 38.6642 25.8106 39.4533 26.1046C39.6729 26.1778 39.7461 25.8119 39.5265 25.7387C39.3069 25.6655 37.9528 25.2263 37.1477 25.0067C36.9281 24.9701 36.8183 25.2995 37.0379 25.3727Z" fill="white"/>
<path d="M35.3181 25.7751C33.0491 27.2755 30.963 29.1786 29.9383 31.777C28.9136 34.3754 29.2064 37.5593 30.6337 40.0113C31.3272 41.1489 32.2054 42.1631 33.232 43.0122C34.2934 43.8906 35.3181 44.0736 36.6722 44.037C38.7216 44.037 41.7226 42.1705 41.2102 39.7917C41.2024 39.7664 41.1891 39.7431 41.1714 39.7234C41.1536 39.7037 41.1318 39.6881 41.1075 39.6776C41.0831 39.6672 41.0568 39.6622 41.0303 39.6629C41.0038 39.6637 40.9778 39.6701 40.954 39.6819L38.0629 41.6948L38.319 41.8046C38.0446 41.1389 37.9157 40.4223 37.941 39.7027C37.9662 38.9831 38.145 38.2773 38.4654 37.6325C38.5752 37.4129 38.2458 37.2299 38.1361 37.4495C37.7868 38.1312 37.5926 38.8817 37.5673 39.6472C37.542 40.4128 37.6862 41.1745 37.9897 41.8777C37.9975 41.9031 38.0107 41.9264 38.0285 41.9461C38.0462 41.9658 38.068 41.9814 38.0924 41.9918C38.1167 42.0023 38.1431 42.0073 38.1696 42.0066C38.1961 42.0058 38.2221 41.9993 38.2458 41.9875L41.137 39.9747L40.8808 39.8649C41.1736 41.2922 39.6731 42.6463 38.5386 43.2684C37.4041 43.8906 35.5011 43.8906 34.4032 43.3782C32.5367 42.4633 30.8898 40.1943 30.2311 38.2546C29.5723 36.315 29.4626 33.3141 30.6703 31.045C31.878 28.776 33.5614 27.3853 35.5011 26.1044C35.6841 25.9581 35.5011 25.6653 35.3181 25.7751Z" fill="white"/>
<path d="M37.807 37.9617C38.0266 37.9617 38.0632 37.5957 37.807 37.5957C37.7585 37.5957 37.7119 37.615 37.6776 37.6493C37.6433 37.6836 37.624 37.7302 37.624 37.7787C37.624 37.8272 37.6433 37.8738 37.6776 37.9081C37.7119 37.9424 37.7585 37.9617 37.807 37.9617Z" fill="white"/>
<path d="M41.6862 27.0924C40.5883 27.8976 39.8197 28.7027 40.0393 30.13C40.2589 31.5573 41.247 33.6799 41.8692 35.4732C42.4874 37.2462 42.5451 39.1666 42.0344 40.9736C41.5237 42.7806 40.4694 44.3867 39.0146 45.5739C38.8316 45.7203 39.0878 45.9765 39.2708 45.8301C40.4379 44.8764 41.3617 43.659 41.9661 42.2783C42.5706 40.8976 42.8384 39.393 42.7475 37.8886C42.6377 36.1685 41.9058 34.7046 41.2836 33.1309C40.9437 32.2886 40.6744 31.4195 40.4785 30.5326C40.1857 29.0687 40.6981 28.227 41.8692 27.4218C42.0522 27.2754 41.8692 26.9827 41.6862 27.0924Z" fill="white"/>
<path d="M40.3681 30.6062C41.191 30.8085 42.0547 30.7704 42.8567 30.4964C43.2958 30.2768 44.0644 29.7645 44.0644 29.2155C44.0649 29.1881 44.0593 29.1608 44.0479 29.1359C44.0365 29.1109 44.0196 29.0888 43.9985 29.0712C43.9775 29.0536 43.9527 29.041 43.9261 29.0343C43.8995 29.0276 43.8717 29.027 43.8448 29.0325H43.8082C43.735 29.0691 43.6618 29.1789 43.6984 29.2521C43.6984 29.2811 43.7053 29.3097 43.7185 29.3355C43.7317 29.3613 43.7509 29.3836 43.7744 29.4005C43.7979 29.4175 43.8251 29.4286 43.8538 29.433C43.8824 29.4374 43.9117 29.4349 43.9392 29.4257C43.9667 29.4165 43.9917 29.4009 44.012 29.3802C44.0323 29.3595 44.0474 29.3343 44.056 29.3067C44.0647 29.279 44.0666 29.2496 44.0617 29.2211C44.0568 29.1925 44.0452 29.1655 44.0278 29.1423L43.918 29.3619L43.6984 29.1789C43.6984 29.6547 42.7469 30.0938 42.4175 30.2036C41.7845 30.3799 41.1171 30.3925 40.4778 30.2402C40.2217 30.2036 40.1485 30.533 40.3681 30.5696V30.6062Z" fill="white"/>
<path d="M40.6981 31.8504C42.1254 32.253 44.2114 31.8138 44.8336 30.3134C44.9434 30.0938 44.614 29.9108 44.5408 30.1304C43.9553 31.4845 42.0888 31.8504 40.8079 31.5211C40.5517 31.4479 40.4786 31.8138 40.6981 31.8504Z" fill="white"/>
<path d="M41.1371 33.3144C42.6376 33.7901 45.3091 33.4608 45.7117 31.6309C45.7214 31.5824 45.7114 31.532 45.684 31.4908C45.6565 31.4496 45.6139 31.421 45.5653 31.4113C45.5168 31.4016 45.4664 31.4116 45.4252 31.4391C45.384 31.4665 45.3554 31.5092 45.3457 31.5577C44.9798 33.168 42.5278 33.351 41.2469 32.985C41.2237 32.9676 41.1967 32.956 41.1681 32.9511C41.1395 32.9461 41.1102 32.9481 41.0825 32.9567C41.0549 32.9654 41.0296 32.9805 41.0089 33.0008C40.9882 33.0211 40.9727 33.046 40.9635 33.0735C40.9543 33.101 40.9518 33.1303 40.9562 33.159C40.9606 33.1877 40.9717 33.2149 40.9886 33.2384C41.0056 33.2619 41.0279 33.2811 41.0537 33.2943C41.0795 33.3075 41.1081 33.3144 41.1371 33.3144Z" fill="white"/>
<path d="M41.6859 34.5947C43.1131 34.9973 45.8945 34.8875 46.1873 33.0211C46.2239 32.7649 45.8579 32.6917 45.8213 32.9113C45.5651 34.5581 43.0033 34.5947 41.7956 34.2654C41.5761 34.1922 41.4663 34.5581 41.6859 34.5947Z" fill="white"/>
<path d="M42.1984 36.1317C43.8086 36.8636 46.224 36.6806 46.7364 34.6678C46.7509 34.6193 46.7456 34.567 46.7216 34.5223C46.6976 34.4777 46.6568 34.4445 46.6083 34.4299C46.5598 34.4154 46.5074 34.4207 46.4628 34.4447C46.4182 34.4687 46.385 34.5095 46.3704 34.558C45.9313 36.3513 43.772 36.4245 42.3813 35.8023C42.1984 35.6925 42.0154 36.0219 42.1984 36.1317Z" fill="white"/>
<path d="M42.5274 37.3402C43.8815 37.8892 46.0773 37.8526 46.9922 36.4619C47.1386 36.2789 46.8093 36.0959 46.6629 36.2789C45.8577 37.5232 43.8449 37.4866 42.6372 36.9743C42.4176 36.9011 42.3078 37.267 42.5274 37.3402Z" fill="white"/>
<path d="M42.6008 39.2428C43.7353 39.8284 45.7848 40.1577 46.7363 39.0232C46.8827 38.8402 46.6265 38.5841 46.4801 38.7671C45.6384 39.7552 43.7719 39.4258 42.7838 38.9134C42.5642 38.8036 42.3813 39.133 42.6008 39.2428Z" fill="white"/>
<path d="M42.4182 40.3409C42.8776 40.793 43.4676 41.0893 44.1046 41.1878C44.7416 41.2863 45.3935 41.1821 45.9681 40.8899C46.1877 40.7801 46.0047 40.4507 45.7851 40.5605C45.283 40.8206 44.7113 40.9147 44.1522 40.8292C43.5932 40.7437 43.0758 40.4831 42.6744 40.0847C42.4914 39.9383 42.2352 40.1945 42.4182 40.3409Z" fill="white"/>
<path d="M35.4651 24.3473C38.3562 23.3226 41.5036 23.0664 44.4679 24.0546C47.4323 25.0427 49.3719 27.0189 51.0554 29.5807C51.1652 29.7637 51.4946 29.5807 51.3482 29.3977C49.7013 26.8359 47.7617 24.8231 44.8339 23.7984C41.9062 22.7737 38.3928 22.8834 35.3553 24.018C35.1357 24.0911 35.2455 24.4571 35.4651 24.3473Z" fill="white"/>
<path d="M37.0749 25.2263C41.1006 23.7624 46.2974 25.7386 48.603 29.3251C48.7128 29.5081 49.0422 29.3251 48.8958 29.1422C46.5536 25.4459 41.1372 23.3598 36.9652 24.8603C36.7456 24.9335 36.8554 25.2995 37.0749 25.2263Z" fill="white"/>
<path d="M48.6027 29.2521C48.6759 30.6428 47.9074 31.8871 46.8827 32.7654C46.8513 32.81 46.8377 32.8647 46.8445 32.9188C46.8512 32.973 46.8779 33.0226 46.9193 33.0582C48.4197 34.0463 50.7254 33.2046 50.7985 31.3015C50.7985 31.253 50.7793 31.2064 50.745 31.1721C50.7106 31.1378 50.6641 31.1185 50.6156 31.1185C50.567 31.1185 50.5205 31.1378 50.4862 31.1721C50.4519 31.2064 50.4326 31.253 50.4326 31.3015C50.3594 32.9484 48.3466 33.5705 47.1023 32.7288V33.0216C48.2002 32.1067 49.0419 30.716 48.9321 29.2521C48.8955 29.0325 48.5295 29.0325 48.5661 29.2521H48.6027Z" fill="white"/>
<path d="M50.5056 31.411C50.8171 31.7702 51.1983 32.0625 51.6261 32.2701C52.0538 32.4777 52.5193 32.5963 52.9942 32.6187C54.1653 32.6187 54.7875 31.9966 55.3364 31.0817C55.3655 31.038 55.3761 30.9845 55.3658 30.933C55.3555 30.8816 55.3252 30.8363 55.2815 30.8072C55.2378 30.7781 55.1844 30.7675 55.1329 30.7778C55.0814 30.7881 55.0362 30.8184 55.007 30.8621C54.5313 31.7038 54.0189 32.2162 52.9942 32.1796C52.5815 32.1869 52.172 32.1058 51.7932 31.9417C51.4145 31.7775 51.0753 31.5342 50.7984 31.228C50.6886 31.0451 50.3592 31.228 50.5056 31.411Z" fill="white"/>
<path d="M51.1279 29.6544C52.1526 30.4961 53.8727 31.3744 55.2634 31.0817C55.4829 31.0085 55.3731 30.6791 55.1536 30.7157C53.9093 31.0085 52.299 30.1301 51.3841 29.3982C51.2011 29.2518 50.9449 29.508 51.1279 29.6544Z" fill="white"/>
<path d="M49.2615 33.2774C48.6759 35.0341 50.1032 36.2784 51.5305 36.9005C51.75 37.0103 51.933 36.6809 51.7135 36.5711C50.4326 36.0222 49.0785 34.9609 49.6274 33.3872C49.7006 33.1676 49.3712 33.0578 49.2615 33.2774Z" fill="white"/>
<path d="M52.6649 32.5092C52.9247 33.2108 52.9585 33.9762 52.7617 34.6981C52.5648 35.42 52.1471 36.0622 51.567 36.5348C51.384 36.6812 51.567 37.0106 51.75 36.8642C52.4148 36.34 52.8918 35.6144 53.1096 34.7963C53.3273 33.9782 53.274 33.1115 52.9577 32.3262C52.8845 32.1066 52.5551 32.2896 52.6649 32.5092Z" fill="white"/>
<path d="M49.7005 33.0944C49.8458 33.4659 50.1042 33.7824 50.4391 33.9991C50.774 34.2158 51.1686 34.3218 51.567 34.3021C52.5185 34.1923 52.6283 33.131 52.5551 32.3624C52.5185 32.1429 52.1525 32.1429 52.1891 32.3624C52.2257 32.582 52.2257 33.9361 51.4206 33.9361C51.1253 33.9326 50.8379 33.8399 50.5962 33.6701C50.3545 33.5002 50.1699 33.2613 50.0665 32.9846C49.9933 32.765 49.6273 32.8748 49.7005 33.0944Z" fill="white"/>
<path d="M21.1181 45.9033C20.7168 45.2631 20.1158 44.7729 19.4081 44.5083C18.7003 44.2437 17.9251 44.2195 17.2022 44.4395L17.4218 44.6956C18.1172 43.1951 19.8372 42.7194 21.3743 42.7926C22.9114 42.8658 24.5948 43.3781 25.034 44.7688C25.0706 44.8786 25.1804 44.9518 25.2536 44.9152C29.0963 43.7441 32.573 46.4157 35.8667 47.9894C39.1604 49.563 41.4661 46.3425 44.0644 45.6837L43.8083 45.4276C43.2331 46.8616 42.3454 48.1493 41.2099 49.1971C41.189 49.2168 41.1731 49.2412 41.1634 49.2682C41.1537 49.2953 41.1505 49.3242 41.154 49.3527C41.1576 49.3812 41.1678 49.4085 41.1839 49.4323C41.1999 49.4561 41.2214 49.4758 41.2465 49.4898C42.6738 50.5511 42.8933 52.747 42.7104 54.3938L42.9665 54.2474C41.5393 53.2959 40.3681 52.0516 39.0141 51.0269C38.3553 50.5511 38.1357 50.4048 37.3672 50.478L35.0616 50.6609C31.8776 50.8805 28.4009 50.7707 25.8025 48.6115C25.6562 48.4651 25.4 48.6847 25.5464 48.8677C26.2783 49.746 27.2664 51.1001 26.9736 52.2712L27.2664 52.198C26.0953 50.8805 24.4851 49.8192 23.9361 48.0626C23.9415 48.0329 23.9394 48.0023 23.9301 47.9736C23.9208 47.9449 23.9046 47.9189 23.8828 47.898C23.8611 47.8771 23.8345 47.8619 23.8055 47.8538C23.7764 47.8456 23.7458 47.8448 23.7163 47.8513C23.6869 47.8579 23.6595 47.8716 23.6367 47.8913C23.6138 47.911 23.5961 47.936 23.5853 47.9642C23.5744 47.9923 23.5707 48.0227 23.5745 48.0526C23.5782 48.0826 23.5893 48.1111 23.6067 48.1357C24.1557 50.0022 25.7659 51.1001 27.0102 52.4542C27.0357 52.4739 27.0652 52.4877 27.0966 52.4947C27.1281 52.5017 27.1606 52.5017 27.1921 52.4947C27.2235 52.4878 27.253 52.4739 27.2785 52.4543C27.304 52.4346 27.3249 52.4096 27.3396 52.381C27.669 51.0635 26.6077 49.5996 25.8025 48.6115L25.5464 48.8677C27.8886 50.8073 30.8895 51.1733 33.8173 51.1001L36.1595 50.9537C37.0378 50.8805 37.843 50.6243 38.5749 51.1733C40.0754 52.2346 41.2831 53.5521 42.7836 54.5402C42.8107 54.5606 42.8431 54.573 42.8769 54.5761C42.9108 54.5791 42.9448 54.5727 42.9752 54.5575C43.0056 54.5423 43.0311 54.5189 43.049 54.49C43.0669 54.4611 43.0763 54.4278 43.0763 54.3938C43.2593 52.6006 42.9665 50.3316 41.4295 49.1971V49.4532C42.6133 48.3666 43.5387 47.0285 44.1376 45.5374C44.2108 45.391 44.0279 45.2812 43.9181 45.3178C42.381 45.7203 41.0635 46.5987 39.6728 47.294C38.9183 47.7392 38.0602 47.979 37.1842 47.9894C36.2327 47.9528 35.3544 47.3672 34.5492 46.928C31.5483 45.4642 28.5839 43.4879 25.1438 44.5492L25.3634 44.6956C24.8876 43.1585 22.948 42.573 21.5207 42.4632C20.0934 42.3534 17.861 42.8292 17.0559 44.5126C17.017 44.5418 16.9914 44.5851 16.9845 44.6331C16.9776 44.6812 16.9901 44.73 17.0193 44.7688C17.0484 44.8076 17.0917 44.8333 17.1398 44.8402C17.1878 44.847 17.2366 44.8345 17.2754 44.8054C17.9151 44.6055 18.6029 44.6227 19.2317 44.8544C19.8605 45.0861 20.3951 45.5192 20.7522 46.0863C20.7642 46.1079 20.7803 46.127 20.7997 46.1424C20.8191 46.1578 20.8413 46.1692 20.8651 46.176C20.8889 46.1828 20.9138 46.1848 20.9383 46.182C20.9629 46.1792 20.9867 46.1715 21.0083 46.1595C21.03 46.1475 21.049 46.1313 21.0644 46.112C21.0798 46.0926 21.0912 46.0704 21.098 46.0466C21.1048 46.0228 21.1068 45.9979 21.104 45.9733C21.1012 45.9487 21.0935 45.925 21.0815 45.9033H21.1181Z" fill="white"/>
<path d="M23.4605 48.3918H23.7532V48.0259C22.5821 48.0625 21.4842 48.5016 20.3131 48.3552L20.4961 48.5382V48.465C20.4961 48.4165 20.4768 48.37 20.4425 48.3356C20.4082 48.3013 20.3616 48.2821 20.3131 48.2821C20.2646 48.2821 20.218 48.3013 20.1837 48.3356C20.1494 48.37 20.1301 48.4165 20.1301 48.465V48.5382C20.1301 48.5868 20.1494 48.6333 20.1837 48.6676C20.218 48.7019 20.2646 48.7212 20.3131 48.7212C21.4842 48.8676 22.5821 48.4284 23.7532 48.3918C23.8018 48.3918 23.8483 48.3726 23.8826 48.3383C23.9169 48.3039 23.9362 48.2574 23.9362 48.2089C23.9362 48.1603 23.9169 48.1138 23.8826 48.0795C23.8483 48.0452 23.8018 48.0259 23.7532 48.0259H23.4605C23.4119 48.0259 23.3654 48.0452 23.3311 48.0795C23.2967 48.1138 23.2775 48.1603 23.2775 48.2089C23.2775 48.2574 23.2967 48.3039 23.3311 48.3383C23.3654 48.3726 23.4119 48.3918 23.4605 48.3918Z" fill="white"/>
<path d="M24.9614 44.4764C25.0006 45.149 24.8858 45.8217 24.6258 46.4432C24.3658 47.0647 23.9674 47.6187 23.4609 48.063C23.2779 48.2459 23.5707 48.5021 23.7171 48.3191C24.2552 47.8394 24.6792 47.2452 24.9578 46.5803C25.2365 45.9154 25.3627 45.1965 25.3274 44.4764C25.3274 44.4279 25.3081 44.3814 25.2738 44.3471C25.2395 44.3127 25.1929 44.2935 25.1444 44.2935C25.0959 44.2935 25.0493 44.3127 25.015 44.3471C24.9807 44.3814 24.9614 44.4279 24.9614 44.4764Z" fill="white"/>
<path d="M26.7911 44.5494C27.9586 44.3642 29.0153 43.7511 29.7554 42.8293L29.4627 42.6464C29.3163 43.1587 29.1699 44.0736 28.6575 44.3664C28.629 44.3728 28.6024 44.386 28.58 44.4048C28.5576 44.4235 28.54 44.4474 28.5287 44.4744C28.5174 44.5014 28.5128 44.5307 28.5152 44.5598C28.5176 44.589 28.5269 44.6172 28.5424 44.642C28.5579 44.6668 28.5791 44.6875 28.6043 44.7024C28.6294 44.7173 28.6578 44.726 28.687 44.7277C28.7162 44.7293 28.7454 44.724 28.7721 44.7121C28.7988 44.7002 28.8223 44.682 28.8405 44.6592C29.4993 44.3298 29.6456 43.3783 29.792 42.7196C29.9384 42.0608 29.609 42.3902 29.4993 42.5732C28.8076 43.4589 27.7955 44.0373 26.6813 44.1834C26.4617 44.22 26.5349 44.586 26.7911 44.5494Z" fill="white"/>
<path d="M34.5861 47.0012C35.1368 47.0013 35.687 47.038 36.2329 47.111C36.7829 47.1415 37.3346 47.117 37.8798 47.0378L37.7334 46.745C37.3378 47.1775 36.8316 47.4939 36.2695 47.66C36.2388 47.683 36.2161 47.7151 36.2047 47.7518C36.1932 47.7885 36.1936 47.8278 36.2057 47.8642C36.2179 47.9006 36.2412 47.9323 36.2723 47.9548C36.3035 47.9773 36.3409 47.9893 36.3793 47.9893C36.9926 47.805 37.5475 47.4645 37.9896 47.0012C38.0203 46.9782 38.043 46.9461 38.0545 46.9094C38.0659 46.8727 38.0655 46.8334 38.0534 46.797C38.0412 46.7605 38.0179 46.7288 37.9868 46.7064C37.9556 46.6839 37.9182 46.6718 37.8798 46.6718C37.3346 46.751 36.7829 46.7755 36.2329 46.745C35.687 46.672 35.1368 46.6354 34.5861 46.6353C34.5375 46.6353 34.491 46.6545 34.4567 46.6888C34.4224 46.7232 34.4031 46.7697 34.4031 46.8182C34.4031 46.8668 34.4224 46.9133 34.4567 46.9476C34.491 46.9819 34.5375 47.0012 34.5861 47.0012Z" fill="white"/>
<path d="M26.4615 44.6224C27.1934 45.7935 25.4367 45.9033 24.9976 45.9399C24.5584 45.9765 24.7414 46.2327 24.9244 46.3059C26.3883 46.8914 25.7661 48.7579 24.3388 48.6115C24.0827 48.5749 24.1192 48.9409 24.3388 48.9775C24.5359 49.0231 24.74 49.0295 24.9395 48.9963C25.139 48.9631 25.33 48.8909 25.5017 48.7838C25.6733 48.6768 25.8221 48.537 25.9397 48.3724C26.0573 48.2078 26.1413 48.0217 26.187 47.8247C26.2326 47.6276 26.239 47.4235 26.2058 47.224C26.1726 47.0245 26.1004 46.8335 25.9933 46.6618C25.8863 46.4902 25.7465 46.3414 25.5819 46.2238C25.4173 46.1062 25.2312 46.0222 25.0342 45.9765V46.3059C25.9857 46.2327 27.596 45.6838 26.8274 44.4395C26.681 44.2199 26.3517 44.4029 26.4981 44.6224H26.4615Z" fill="white"/>
<path d="M26.6084 45.7205C26.7343 45.8487 26.8269 46.0058 26.8779 46.178C26.929 46.3503 26.937 46.5325 26.9012 46.7086C26.7914 47.1478 26.462 47.2942 26.0228 47.3308C25.5837 47.3673 25.8033 47.7333 26.0228 47.6967C26.2424 47.6601 27.0476 47.4771 27.2305 46.9282C27.3124 46.6744 27.3215 46.4027 27.2568 46.1439C27.1921 45.8852 27.0563 45.6497 26.8646 45.4643C26.8488 45.4433 26.8288 45.426 26.8058 45.4134C26.7828 45.4009 26.7573 45.3934 26.7312 45.3916C26.705 45.3897 26.6788 45.3935 26.6542 45.4027C26.6296 45.4118 26.6073 45.4262 26.5888 45.4447C26.5703 45.4632 26.5559 45.4855 26.5467 45.5101C26.5376 45.5347 26.5338 45.5609 26.5357 45.5871C26.5375 45.6132 26.545 45.6387 26.5575 45.6617C26.5701 45.6847 26.5874 45.7048 26.6084 45.7205Z" fill="white"/>
<path d="M28.3647 44.879C28.8405 45.7207 27.8524 46.233 27.1936 46.3062C27.1638 46.3144 27.136 46.3287 27.1122 46.3483C27.0883 46.3679 27.0688 46.3923 27.055 46.4199C27.0411 46.4475 27.0333 46.4778 27.032 46.5086C27.0306 46.5395 27.0358 46.5703 27.0472 46.599C27.1967 46.7898 27.3012 47.0118 27.3529 47.2485C27.4047 47.4852 27.4023 47.7306 27.346 47.9663C27.2897 48.202 27.181 48.4219 27.0278 48.6097C26.8747 48.7976 26.6812 48.9484 26.4617 49.051C26.2421 49.1608 26.4251 49.4536 26.6447 49.3438C26.9071 49.222 27.139 49.043 27.3234 48.82C27.5077 48.5969 27.6398 48.3355 27.71 48.0548C27.7802 47.774 27.7867 47.4812 27.729 47.1976C27.6713 46.9141 27.5509 46.647 27.3766 46.416L27.1936 46.6722C28.2183 46.5624 29.2796 45.7939 28.6941 44.6594C28.5843 44.4764 28.2549 44.6594 28.3647 44.879Z" fill="white"/>
<path d="M28.4745 45.9766C28.9868 46.6719 28.6941 47.7698 27.7059 47.6966C27.6574 47.6966 27.6109 47.7159 27.5765 47.7502C27.5422 47.7845 27.5229 47.8311 27.5229 47.8796C27.5229 47.9281 27.5422 47.9747 27.5765 48.009C27.6109 48.0433 27.6574 48.0626 27.7059 48.0626C28.9868 48.1724 29.4626 46.7085 28.8038 45.7936C28.6575 45.6106 28.3281 45.7936 28.4745 45.9766Z" fill="white"/>
<path d="M27.5959 48.2093C27.7271 48.2936 27.8374 48.4067 27.9182 48.54C27.9991 48.6734 28.0485 48.8234 28.0626 48.9787C28.0767 49.134 28.0552 49.2904 27.9997 49.4362C27.9442 49.5819 27.8562 49.713 27.7423 49.8196C27.5959 50.0026 27.8521 50.2587 27.9985 50.0758C28.1476 49.9263 28.2616 49.7456 28.3324 49.5468C28.4032 49.348 28.4291 49.1359 28.4081 48.9259C28.3871 48.7159 28.3197 48.5131 28.2109 48.3323C28.1022 48.1514 27.9546 47.9969 27.7789 47.8799C27.5594 47.7335 27.3764 48.0629 27.5959 48.2093Z" fill="white"/>
<path d="M29.9749 45.098C29.9743 45.3864 29.8764 45.6661 29.6971 45.8919C29.5178 46.1177 29.2675 46.2764 28.9868 46.3423C28.877 46.3423 28.8038 46.5619 28.9136 46.6351C29.7554 47.3304 29.8651 49.3067 28.3647 49.1237C28.1817 49.0871 28.1085 49.3799 28.2549 49.4531C28.4209 49.525 28.5674 49.6356 28.682 49.7757C28.7966 49.9157 28.876 50.0812 28.9136 50.2582C28.9136 50.3067 28.9329 50.3533 28.9672 50.3876C29.0015 50.4219 29.0481 50.4412 29.0966 50.4412C29.1451 50.4412 29.1917 50.4219 29.226 50.3876C29.2603 50.3533 29.2796 50.3067 29.2796 50.2582C29.2796 49.6727 28.9136 49.4165 28.4379 49.1603L28.3647 49.4897C30.1945 49.6726 30.3043 47.2938 29.1698 46.3789L29.0966 46.6717C29.4617 46.6092 29.7907 46.4139 30.0204 46.1234C30.2501 45.8329 30.3643 45.4677 30.3409 45.098C30.3409 45.0495 30.3216 45.003 30.2873 44.9686C30.253 44.9343 30.2064 44.915 30.1579 44.915C30.1094 44.915 30.0628 44.9343 30.0285 44.9686C29.9942 45.003 29.9749 45.0495 29.9749 45.098Z" fill="white"/>
<path d="M31 45.6473C31.1094 45.8552 31.1657 46.0869 31.1641 46.3217C31.1625 46.5566 31.1029 46.7875 30.9907 46.9938C30.8785 47.2002 30.7171 47.3756 30.5208 47.5046C30.3245 47.6336 30.0994 47.7122 29.8655 47.7334C29.83 47.7398 29.7973 47.7565 29.7713 47.7815C29.7453 47.8065 29.7273 47.8386 29.7194 47.8737C29.7116 47.9089 29.7144 47.9456 29.7273 47.9792C29.7403 48.0129 29.7629 48.0419 29.7923 48.0627C30.3412 48.7215 30.7804 49.673 30.0485 50.405C29.9021 50.5879 30.1583 50.8441 30.3046 50.6611C31.183 49.7828 30.7438 48.6483 30.0485 47.8066L29.9387 48.0993C30.2284 48.0632 30.5049 47.9569 30.7442 47.7896C30.9835 47.6223 31.1783 47.3992 31.3117 47.1395C31.4452 46.8798 31.5132 46.5915 31.5099 46.2996C31.5066 46.0077 31.4321 45.7209 31.2928 45.4644C31.183 45.2448 30.8902 45.4278 31 45.6473Z" fill="white"/>
<path d="M30.9265 47.587C31.3291 48.0994 31.2193 48.6484 30.6337 49.1973C30.0482 49.7463 30.4508 49.4901 30.6337 49.5267L31.2193 50.771C31.1827 50.8808 31.2193 51.0638 31.3657 51.0272C32.793 50.8808 33.0857 48.6117 31.6585 48.2092L31.7317 48.502C32.4636 47.77 32.8296 46.3793 31.4389 46.2329L31.5853 46.5623C31.9512 46.2329 32.1342 46.0134 32.0244 45.5376L31.7317 45.7206C31.878 45.867 32.8662 46.6721 32.244 46.9283C31.6219 47.1845 32.1342 47.2211 32.2806 47.2943C33.1589 47.6968 33.1589 48.2092 32.3172 48.8679C32.1708 48.9045 32.1342 49.1607 32.3172 49.1973C32.5002 49.2339 33.0857 49.5999 32.9759 50.1488C33.0616 50.2697 33.1014 50.4173 33.088 50.5649C33.0745 50.7125 33.0089 50.8505 32.9028 50.954C32.7564 51.1369 33.0857 51.3199 33.2321 51.1369C33.3798 50.9477 33.4773 50.7243 33.5158 50.4874C33.5542 50.2505 33.5323 50.0078 33.452 49.7816C33.3718 49.5554 33.2358 49.3531 33.0566 49.1934C32.8774 49.0337 32.6609 48.9217 32.427 48.8679V49.1973C32.6772 49.1251 32.8963 48.9716 33.0495 48.7609C33.2027 48.5503 33.2813 48.2946 33.2729 48.0343C33.2645 47.774 33.1695 47.5239 33.0031 47.3236C32.8366 47.1233 32.6082 46.9842 32.3538 46.9283L32.427 47.2577C33.4517 46.8185 32.3904 45.9036 31.9878 45.4644C31.5853 45.0252 31.6585 45.4644 31.6951 45.6474C31.6868 45.7775 31.6496 45.9041 31.5863 46.018C31.523 46.1319 31.4351 46.2304 31.3291 46.3061C31.3099 46.3133 31.2922 46.3243 31.2772 46.3383C31.2622 46.3523 31.2501 46.3691 31.2416 46.3878C31.2332 46.4065 31.2284 46.4267 31.2277 46.4472C31.227 46.4677 31.2304 46.4882 31.2376 46.5074C31.2448 46.5266 31.2557 46.5443 31.2697 46.5593C31.2838 46.5743 31.3006 46.5864 31.3193 46.5949C31.338 46.6033 31.3582 46.6081 31.3787 46.6088C31.3992 46.6095 31.4196 46.6061 31.4389 46.5989C31.9512 47.2943 31.9878 47.8432 31.4755 48.2458C31.4561 48.2705 31.4434 48.2998 31.4386 48.3308C31.4338 48.3619 31.437 48.3936 31.4481 48.423C31.4591 48.4525 31.4775 48.4785 31.5015 48.4988C31.5256 48.519 31.5544 48.5327 31.5853 48.5386C32.6466 48.8679 32.3172 50.5514 31.3657 50.6612L31.5487 50.954C31.6466 50.7908 31.7033 50.6062 31.7138 50.4162C31.7243 50.2262 31.6884 50.0364 31.6091 49.8634C31.5298 49.6904 31.4095 49.5393 31.2587 49.4233C31.1079 49.3072 30.9311 49.2297 30.7435 49.1973V49.5267C31.6951 49.1607 31.6951 48.1726 31.2193 47.404C31.2129 47.3755 31.1998 47.3489 31.181 47.3265C31.1622 47.3041 31.1383 47.2865 31.1113 47.2752C31.0843 47.264 31.055 47.2593 31.0259 47.2617C30.9967 47.2641 30.9686 47.2734 30.9438 47.2889C30.919 47.3044 30.8982 47.3256 30.8833 47.3508C30.8684 47.3759 30.8597 47.4043 30.8581 47.4335C30.8564 47.4627 30.8617 47.4919 30.8736 47.5186C30.8855 47.5453 30.9037 47.5688 30.9265 47.587Z" fill="white"/>
<path d="M33.1954 48.0995C33.4501 48.2245 33.656 48.4304 33.781 48.6851C33.964 49.0876 34.0006 49.6732 33.5248 49.8196C33.049 49.966 33.415 50.2587 33.6346 50.1855C34.7691 49.7464 34.2201 48.2459 33.3784 47.7701C33.1954 47.6604 33.0124 47.9897 33.1954 48.0995Z" fill="white"/>
<path d="M33.1584 48.0995C33.4469 47.9958 33.6931 47.7995 33.8585 47.5414C34.024 47.2833 34.0995 46.9777 34.0734 46.6722C34.0734 46.6237 34.0541 46.5772 34.0198 46.5429C33.9855 46.5085 33.9389 46.4893 33.8904 46.4893C33.8418 46.4893 33.7953 46.5085 33.761 46.5429C33.7267 46.5772 33.7074 46.6237 33.7074 46.6722C33.7299 46.897 33.6776 47.1229 33.5584 47.3149C33.4393 47.5068 33.2601 47.654 33.0486 47.7336C32.8291 47.8068 32.9389 48.1727 33.1584 48.0995Z" fill="white"/>
<path d="M33.7075 46.782C34.1466 47.1846 34.9152 48.1361 33.9271 48.6119C33.9037 48.6325 33.885 48.6578 33.8722 48.6862C33.8593 48.7146 33.8527 48.7454 33.8527 48.7765C33.8527 48.8077 33.8593 48.8385 33.8722 48.8669C33.885 48.8953 33.9037 48.9206 33.9271 48.9412C34.659 49.2706 35.3543 50.2587 34.3662 50.9175C34.1466 51.0273 34.3296 51.3566 34.5492 51.2468C35.6471 50.5149 35.1714 49.1242 34.11 48.6119V48.9412C35.2445 48.3923 34.6224 47.148 33.9637 46.5258C33.9479 46.5049 33.9279 46.4875 33.9049 46.475C33.8818 46.4624 33.8564 46.455 33.8302 46.4531C33.8041 46.4512 33.7778 46.455 33.7533 46.4642C33.7287 46.4734 33.7064 46.4877 33.6879 46.5062C33.6693 46.5248 33.655 46.5471 33.6458 46.5716C33.6367 46.5962 33.6329 46.6224 33.6347 46.6486C33.6366 46.6747 33.6441 46.7002 33.6566 46.7232C33.6692 46.7462 33.6865 46.7663 33.7075 46.782Z" fill="white"/>
<path d="M33.5252 50.2584C33.5984 50.295 34.1108 50.6975 34.0376 50.8073C33.9644 50.9171 34.2571 51.1733 34.3669 50.9903C34.4767 50.8073 34.0376 50.2218 33.7814 50.0022C33.5252 49.7826 33.3788 50.0754 33.5252 50.2584Z" fill="white"/>
<path d="M34.5493 47.2208C35.0616 47.6965 35.9034 48.6847 35.025 49.2702C34.9954 49.2884 34.9715 49.3146 34.9562 49.3458C34.9409 49.377 34.9348 49.412 34.9386 49.4465C34.9425 49.4811 34.9561 49.5139 34.9779 49.541C34.9997 49.5681 35.0287 49.5884 35.0616 49.5996C35.3384 49.6749 35.5807 49.8436 35.7474 50.077C35.9141 50.3104 35.9951 50.5942 35.9766 50.8805C35.9766 50.929 35.9958 50.9756 36.0302 51.0099C36.0645 51.0442 36.111 51.0635 36.1595 51.0635C36.2081 51.0635 36.2546 51.0442 36.2889 51.0099C36.3233 50.9756 36.3425 50.929 36.3425 50.8805C36.37 50.5072 36.2634 50.1364 36.0421 49.8345C35.8208 49.5327 35.4991 49.3197 35.1348 49.2336L35.208 49.563C36.3059 48.8677 35.5374 47.6234 34.8055 46.9646C34.6225 46.8182 34.3663 47.0744 34.5493 47.2208Z" fill="white"/>
<path d="M35.7935 48.4289C35.9399 48.3557 36.3058 48.5021 36.4156 48.5753C36.5308 48.6215 36.6283 48.7031 36.6941 48.8084C36.7599 48.9136 36.7905 49.0371 36.7816 49.1608C36.7607 49.3634 36.6799 49.5551 36.5495 49.7116C36.4191 49.868 36.2451 49.9821 36.0497 50.0392C36.0011 50.0537 35.9604 50.087 35.9363 50.1316C35.9123 50.1762 35.907 50.2285 35.9216 50.2771C35.9361 50.3256 35.9694 50.3663 36.014 50.3904C36.0586 50.4144 36.1109 50.4197 36.1594 50.4051C36.4791 50.3191 36.7561 50.1189 36.9382 49.8424C37.1203 49.5659 37.1947 49.2323 37.1476 48.9047C37.1 48.7452 37.0155 48.5992 36.9011 48.4785C36.7867 48.3577 36.6454 48.2655 36.4888 48.2093C36.2326 48.0995 35.8667 47.9531 35.6105 48.1361C35.5819 48.1425 35.5554 48.1557 35.5329 48.1745C35.5105 48.1933 35.493 48.2171 35.4817 48.2441C35.4704 48.2711 35.4658 48.3004 35.4681 48.3296C35.4705 48.3587 35.4798 48.3869 35.4953 48.4117C35.5108 48.4365 35.5321 48.4572 35.5572 48.4721C35.5824 48.487 35.6108 48.4957 35.64 48.4974C35.6691 48.499 35.6983 48.4937 35.725 48.4818C35.7517 48.4699 35.7752 48.4518 35.7935 48.4289Z" fill="white"/>
<path d="M23.2121 45.719C23.602 45.3976 23.6471 44.8083 23.3129 44.4028C22.9786 43.9973 22.3915 43.9291 22.0016 44.2506C21.6117 44.572 21.5666 45.1612 21.9009 45.5667C22.2352 45.9722 22.8222 46.0404 23.2121 45.719Z" stroke="white" stroke-width="1.15364" stroke-miterlimit="10"/>
<path d="M7.64667 13.3733C7.98978 13.0905 8.02821 12.5704 7.73252 12.2117C7.43682 11.853 6.91896 11.7915 6.57585 12.0743C6.23274 12.3571 6.1943 12.8772 6.49 13.2359C6.78569 13.5946 7.30355 13.6561 7.64667 13.3733Z" stroke="white" stroke-miterlimit="10"/>
<path d="M19.925 13.4939C20.3149 13.1725 20.36 12.5832 20.0257 12.1777C19.6915 11.7722 19.1044 11.704 18.7145 12.0255C18.3246 12.3469 18.2795 12.9361 18.6138 13.3416C18.9481 13.7471 19.5351 13.8153 19.925 13.4939Z" stroke="white" stroke-width="1.15364" stroke-miterlimit="10"/>
<path d="M31.2192 13.6877C31.6091 13.3663 31.6542 12.7771 31.3199 12.3716C30.9857 11.9661 30.3986 11.8979 30.0087 12.2193C29.6188 12.5407 29.5737 13.13 29.908 13.5355C30.2422 13.941 30.8293 14.0092 31.2192 13.6877Z" stroke="white" stroke-width="1.15364" stroke-miterlimit="10"/>
<path d="M24.6681 7.98916C24.5217 9.67262 21.6306 9.01387 21.5574 7.58659C21.4842 6.15931 22.1795 5.79333 22.7651 5.09799C23.632 4.18006 24.2822 3.07961 24.6681 1.87746H24.3022C25.1805 3.12175 26.0222 4.36605 26.8274 5.64695C27.1567 6.2325 27.5593 6.85465 27.5593 7.54999C27.5605 7.87151 27.4407 8.18172 27.2237 8.41901C27.0068 8.65631 26.7085 8.80333 26.3882 8.83088C25.7294 8.94068 25.2171 8.42832 24.9243 7.91596C24.6315 7.4036 24.4851 7.91596 24.5949 8.09894C24.7047 8.28193 25.6563 9.30665 26.498 9.19685C26.8502 9.16553 27.1808 9.01375 27.4341 8.7671C27.6874 8.52044 27.848 8.19399 27.8887 7.84277C28.0351 6.96444 27.5593 6.15931 27.1201 5.46396C26.3516 4.18307 25.5099 2.93877 24.6315 1.69447C24.5583 1.58468 24.3388 1.58468 24.3022 1.73107C23.8996 3.34134 22.8017 4.25626 21.9234 5.53715C21.045 6.81805 20.9718 7.25722 21.3378 8.17214C21.8868 9.67262 24.8877 9.74581 25.0341 7.95256C25.0341 7.90403 25.0148 7.85749 24.9805 7.82317C24.9462 7.78886 24.8996 7.76957 24.8511 7.76957C24.8026 7.76957 24.756 7.78886 24.7217 7.82317C24.6874 7.85749 24.6681 7.90403 24.6681 7.95256V7.98916Z" fill="white"/>
<path d="M27.1568 5.31727C28.767 3.99978 30.5237 2.75548 32.5365 2.16992C34.5494 1.58437 36.855 1.84055 38.8678 3.01166C39.5567 3.46654 40.3429 3.75321 41.1629 3.84856C41.983 3.94392 42.8139 3.84528 43.5888 3.56061C44.9795 3.12145 46.48 2.5359 47.2851 1.21841L46.9192 1.07201C46.48 3.41422 44.7965 5.68323 42.1615 5.35386C41.942 5.31726 41.9054 5.61004 42.0518 5.68324C43.0765 6.34198 42.0152 8.39141 41.5394 9.05016C41.1959 9.57566 40.7122 9.99463 40.1432 10.2598C39.5741 10.5249 38.9422 10.6257 38.3189 10.5506L38.3921 10.9166C39.5632 10.4043 39.9291 8.42801 39.9657 7.2935C40.0023 6.159 39.124 4.73172 37.7699 4.14617C34.0736 2.60909 30.4871 4.43894 27.4861 6.59816L27.7057 6.89094L28.1083 6.56156C28.1293 6.54583 28.1466 6.52578 28.1592 6.50276C28.1717 6.47974 28.1792 6.4543 28.181 6.42815C28.1829 6.402 28.1791 6.37576 28.1699 6.35119C28.1608 6.32663 28.1464 6.30432 28.1279 6.28579C28.1094 6.26725 28.0871 6.25291 28.0625 6.24374C28.0379 6.23457 28.0117 6.23079 27.9855 6.23265C27.9594 6.23451 27.9339 6.24196 27.9109 6.25451C27.8879 6.26706 27.8678 6.28441 27.8521 6.30539L27.4496 6.63476C27.3032 6.78114 27.5227 7.03732 27.6691 6.92753C30.1211 5.17088 32.7195 3.59721 35.8303 4.03637C37.2209 4.21936 39.0142 4.76831 39.49 6.26879C39.9657 7.76926 39.4168 10.0749 38.2091 10.5872C38.0261 10.6604 38.1359 10.9166 38.3189 10.9166C39.9291 11.1362 41.393 10.1847 42.1615 8.75738C42.9301 7.3301 43.3326 6.0858 42.2347 5.39046L42.1615 5.71983C44.9429 6.0858 46.8094 3.6704 47.2851 1.18181C47.2955 1.14005 47.2909 1.09596 47.272 1.05729C47.2531 1.01862 47.2212 0.987836 47.1819 0.970358C47.1426 0.95288 47.0983 0.949826 47.057 0.961725C47.0156 0.973623 46.9798 0.999716 46.9557 1.03542C46.0042 2.60909 43.4424 3.52401 41.6492 3.56061C39.8559 3.59721 38.1725 1.87715 36.1962 1.51118C32.6829 0.925625 29.5356 2.93846 26.9006 5.06109C26.7176 5.20748 26.9738 5.46366 27.1568 5.31727Z" fill="white"/>
<path d="M42.5641 7.95278C43.6254 8.53833 44.9795 9.38006 46.2238 9.12388C46.2529 9.12388 46.2808 9.11231 46.3014 9.09172C46.322 9.07114 46.3336 9.04321 46.3336 9.01409C46.4764 8.25922 46.4625 7.48302 46.2925 6.73379C46.1225 5.98457 45.8001 5.27834 45.3455 4.65905C45.2723 4.54925 45.1991 4.54926 45.0893 4.58585L44.7599 4.73224C44.5769 4.84203 44.7599 5.13481 44.9429 5.06162L45.2723 4.91522L45.0161 4.84203C45.7278 5.74846 46.1029 6.87379 46.0774 8.02597C46.0774 8.31874 46.0042 8.72131 45.6382 8.8311C45.2723 8.94089 44.8697 8.64812 44.6501 8.57492C43.9911 8.30957 43.3547 7.99137 42.7471 7.62341C42.5641 7.51361 42.3811 7.84299 42.5641 7.95278Z" fill="white"/>
<path d="M22.9485 4.58552C20.7161 2.02373 16.91 0.0840926 13.5064 0.559853C12.7514 0.662826 12.0205 0.898213 11.3472 1.25519C10.3957 1.76755 9.55396 2.46289 8.45605 2.60928C7.35814 2.75567 6.18704 2.3897 5.16232 1.98713C4.13761 1.58457 3.14949 1.07221 2.56394 0.0840914C2.45415 -0.0988936 2.16137 0.0474922 2.19797 0.230477C2.67373 2.75567 4.54018 5.13447 7.35814 4.8051L7.24835 4.43913C6.15045 5.17107 6.84579 6.92773 7.32155 7.84265C7.67361 8.55292 8.23295 9.13962 8.92562 9.52516C9.61828 9.9107 10.4117 10.0769 11.2008 10.0019C11.3472 10.0019 11.4936 9.7457 11.274 9.6725C11.0544 9.59931 10.3957 8.57459 10.2127 7.91585C10.0297 7.2571 9.73695 6.19579 9.99313 5.35406C10.4689 3.81698 12.2621 3.26803 13.6528 3.08504C16.8002 2.68248 19.3986 4.21955 21.814 6.0128C21.9969 6.12259 22.1799 5.82982 22.0335 5.72003L21.631 5.35406C21.448 5.20767 21.1918 5.46385 21.3748 5.61024L21.7774 5.97621L21.9969 5.68343C18.996 3.48761 15.4461 1.65776 11.7132 3.23144C10.4323 3.78039 9.51737 4.76851 9.51737 6.19579C9.51737 7.62307 9.91994 9.45292 11.091 9.96528L11.2008 9.63591C10.5728 9.70538 9.93775 9.60239 9.36388 9.33802C8.79 9.07365 8.29902 8.6579 7.9437 8.13543C7.46794 7.47668 6.44322 5.42725 7.43134 4.76851C7.57773 4.69531 7.54113 4.40253 7.35814 4.43913C4.68656 4.7685 3.0031 2.49949 2.56394 0.157284L2.23456 0.267076C3.0397 1.65776 4.61337 2.24332 6.07725 2.68248C6.86203 2.96378 7.7003 3.06386 8.52925 2.97525C9.44417 2.82886 10.2127 2.31651 11.0178 1.87734C14.8971 -0.391672 19.9109 1.65776 22.6923 4.8417C22.8387 5.02469 23.0949 4.73191 22.9485 4.58552Z" fill="white"/>
<path d="M24.9611 7.9888C24.3023 7.65943 23.973 7.18366 24.3389 6.48832C24.7049 5.79298 24.7415 5.82957 24.8879 5.4636H24.5585C24.8021 5.77514 24.9993 6.12029 25.1441 6.48832C25.2159 6.73761 25.2126 7.00257 25.1345 7.24997C25.0563 7.49737 24.9069 7.7162 24.7049 7.87901C24.6839 7.89474 24.6666 7.91479 24.654 7.93781C24.6415 7.96083 24.634 7.98627 24.6322 8.01242C24.6303 8.03857 24.6341 8.06482 24.6433 8.08938C24.6524 8.11394 24.6668 8.13625 24.6853 8.15479C24.7038 8.17332 24.7261 8.18766 24.7507 8.19683C24.7753 8.206 24.8015 8.20978 24.8277 8.20792C24.8538 8.20606 24.8793 8.19861 24.9023 8.18606C24.9253 8.17351 24.9453 8.15616 24.9611 8.13519C25.327 7.73262 25.6198 7.36665 25.5466 6.7811C25.4511 6.23518 25.2251 5.72041 24.8879 5.28062C24.865 5.25217 24.8354 5.22989 24.8017 5.21578C24.768 5.20167 24.7313 5.19619 24.695 5.19982C24.6587 5.20345 24.6238 5.21609 24.5936 5.23659C24.5634 5.25709 24.5387 5.2848 24.5219 5.31722C24.3023 5.93937 23.6802 6.52492 23.79 7.25686C23.8998 7.9888 24.3389 8.0254 24.7415 8.24498C25.1441 8.46456 25.1441 8.06199 24.9611 7.9522V7.9888Z" fill="white"/>
<path d="M7.02866 7.0007C6.45642 7.3327 5.85641 7.61433 5.2354 7.84243C4.57666 8.09861 3.80812 8.31819 3.80812 7.33008C3.80002 6.18059 4.17326 5.06086 4.86943 4.14614H4.61325L4.94263 4.29252C5.16221 4.40231 5.34519 4.10954 5.12561 3.99975L4.79624 3.85336C4.77767 3.84093 4.75651 3.83292 4.73437 3.82993C4.71223 3.82694 4.6897 3.82906 4.6685 3.83612C4.64731 3.84319 4.62801 3.85501 4.61209 3.87069C4.59617 3.88636 4.58405 3.90547 4.57666 3.92655C4.11664 4.53645 3.78808 5.2351 3.6117 5.97838C3.43533 6.72167 3.41498 7.49345 3.55194 8.245C3.55089 8.27824 3.56119 8.31085 3.58115 8.33746C3.6011 8.36407 3.62952 8.38309 3.66173 8.39139C4.90603 8.64756 6.18693 7.84243 7.21164 7.25688C7.43122 7.14709 7.24824 6.85431 7.02866 6.96411V7.0007Z" fill="white"/>
<path d="M18.703 46.9646C18.2639 46.6718 18.2273 45.9765 18.1907 45.5373L17.9345 45.6837C18.52 46.0497 19.3252 46.6718 20.0571 46.745C20.297 46.7719 20.5387 46.7132 20.7396 46.5793C20.9404 46.4454 21.0876 46.2448 21.155 46.0131C21.155 45.9645 21.1358 45.918 21.1014 45.8837C21.0671 45.8494 21.0206 45.8301 20.972 45.8301C20.9235 45.8301 20.877 45.8494 20.8427 45.8837C20.8083 45.918 20.7891 45.9645 20.7891 46.0131C20.7525 46.3424 20.2035 46.4156 19.9473 46.3424C19.6994 46.2705 19.4647 46.1593 19.252 46.0131C18.8541 45.8293 18.4743 45.6088 18.1175 45.3543C18.0862 45.343 18.0528 45.339 18.0197 45.3425C17.9867 45.3461 17.9548 45.3571 17.9266 45.3747C17.8984 45.3923 17.8746 45.4161 17.857 45.4443C17.8393 45.4724 17.8283 45.5043 17.8247 45.5373C17.8979 46.1595 17.9345 46.8914 18.52 47.294C19.1056 47.6965 18.886 47.111 18.703 46.9646Z" fill="white"/>
<path d="M73.6336 40.98V54.1183H71.0718V46.067L68.2539 50.971H67.3755L71.8038 43.3222V53.3864H72.9017V41.7119H71.4744L66.1678 50.971L63.3499 46.067V54.1183H60.7515V40.98H63.3864L66.607 46.5793L66.1678 47.3479L62.9473 41.7119H61.52V53.3864H62.6179V43.3222L66.1678 49.4705L71.0352 40.98H73.6336Z" fill="white"/>
<path d="M87.9796 54.1183H85.308L84.1003 50.8612H77.8056L76.8907 53.3864H78.0252L78.5741 51.8493H79.3427L78.5375 54.1183H75.8293L77.2932 50.0926H84.6492L85.8203 53.3864H86.9548L82.673 41.7119H81.1359L78.7205 48.3726H83.2219L81.9044 44.7861L80.9895 47.3845H80.1844L81.9044 42.6268L84.2833 49.1045H77.6592L80.6236 40.98H83.2219L87.9796 54.1183Z" fill="white"/>
<path d="M98.3727 50.4217C98.3727 52.9835 96.3599 54.301 93.5785 54.301C91.975 54.2998 90.3991 53.8837 89.0039 53.0933L89.8822 50.7145C91.0899 51.3367 92.3708 51.849 93.5785 51.849C94.7862 51.849 95.811 51.4099 95.811 50.4217C95.811 48.7383 94.6764 48.2625 93.5419 47.677C92.4074 47.0914 91.3827 46.4327 91.3827 44.7126C91.3827 43.5781 92.1512 42.5168 94.0909 42.5168C95.0001 42.529 95.897 42.7284 96.7259 43.1023L97.0918 42.0776C96.3233 41.7117 95.7012 41.5287 94.0909 41.5287C92.4806 41.5287 90.2482 42.59 90.2482 44.7126C90.2482 46.8352 91.3095 47.7502 92.7002 48.3723L92.444 49.0676C90.541 48.2259 89.5163 46.762 89.5163 44.7126C89.5163 42.6632 91.6389 40.7601 94.0909 40.7601C95.4605 40.6945 96.82 41.0249 98.0068 41.7117L97.1284 44.0905C96.2007 43.5641 95.1573 43.2749 94.0909 43.2487C92.7734 43.2487 92.1147 43.7977 92.1147 44.7126C92.1147 45.6275 92.9564 46.5059 93.9079 47.0182C94.8594 47.5306 96.5429 48.3357 96.5429 50.4217C96.5429 51.2269 96.1403 52.581 93.5785 52.581C92.4335 52.5358 91.3111 52.2489 90.2848 51.7392L89.9188 52.7273C91.0576 53.2861 92.3101 53.5741 93.5785 53.5691C95.628 53.5691 97.6408 52.7639 97.6408 50.4217C97.6408 48.0795 96.6893 47.128 94.6033 46.2497L94.8228 45.5543C97.1284 46.5059 98.3727 48.0063 98.3727 50.4217Z" fill="white"/>
<path d="M111.219 40.98V54.1183H108.657V48.4458H101.96V53.3864H103.058V49.4339H103.826V54.1183H101.228V47.7138H109.389V53.3864H110.487V41.7119H109.389V46.7257H101.228V40.98H103.826V44.9691H103.058V41.7119H101.96V45.9572H108.657V40.98H111.219Z" fill="white"/>
<path d="M123.076 40.98V43.432H120.771V42.7H122.344V41.7119H119.673V54.1183H117.074V41.7119H114.403V42.7H115.976V43.432H113.634V40.98H117.806V53.3864H118.941V40.98H123.076Z" fill="white"/>
<path d="M136.178 47.5307C136.178 51.227 134.092 54.3011 130.396 54.3011C126.7 54.3011 124.614 51.227 124.614 47.5307C124.614 43.8344 126.736 40.7603 130.396 40.7603H130.762V42.4803C133.214 42.7365 134.348 45.1885 134.348 47.4941C134.348 49.7997 133.104 52.5445 130.396 52.5445C127.688 52.5445 126.48 49.9095 126.48 47.4941C126.48 45.0787 127.249 43.5416 128.932 42.7731V43.6148C127.688 44.3834 127.212 46.1034 127.212 47.4941C127.212 48.8848 128.054 51.8125 130.396 51.8125C132.738 51.8125 133.616 49.3605 133.616 47.4941C133.616 45.6277 132.738 43.2122 130.396 43.2122H130.03V41.4556C126.809 41.6752 125.382 44.5663 125.382 47.4575C125.382 50.3487 126.919 53.496 130.396 53.496C133.873 53.496 135.446 50.4585 135.446 47.4575C135.446 44.4565 134.348 42.3705 131.896 41.6386V40.87C134.641 41.6752 136.178 44.3834 136.178 47.5307Z" fill="white"/>
<path d="M147.815 51.6297V54.1183H138.154V52.1421L143.46 44.4201H144.339L138.886 52.3616V53.3864H147.083V52.3982H140.167L146.278 43.432H138.703V40.98H147.706V41.7119H139.435V42.7H147.669L141.557 51.6297H147.815Z" fill="white"/>
<path d="M152.683 53.0198C152.683 53.2873 152.607 53.5492 152.465 53.7757C152.322 54.0022 152.119 54.1841 151.878 54.3007L151.549 53.642C151.671 53.5906 151.774 53.5038 151.846 53.3929C151.918 53.2819 151.954 53.1519 151.951 53.0198C151.976 52.9126 151.976 52.8013 151.951 52.6941C151.927 52.587 151.879 52.4867 151.81 52.4007C151.741 52.3148 151.654 52.2454 151.555 52.1977C151.456 52.15 151.348 52.1252 151.238 52.1252C151.128 52.1252 151.019 52.15 150.92 52.1977C150.821 52.2454 150.734 52.3148 150.666 52.4007C150.597 52.4867 150.549 52.587 150.524 52.6941C150.5 52.8013 150.5 52.9126 150.524 53.0198C150.521 53.1519 150.558 53.2819 150.63 53.3929C150.701 53.5038 150.805 53.5906 150.927 53.642L150.597 54.3007C150.357 54.1841 150.153 54.0022 150.011 53.7757C149.869 53.5492 149.793 53.2873 149.792 53.0198C149.759 52.8107 149.771 52.5969 149.829 52.393C149.886 52.1891 149.987 52.0001 150.124 51.839C150.262 51.6779 150.432 51.5486 150.625 51.4599C150.817 51.3711 151.026 51.3252 151.238 51.3252C151.45 51.3252 151.659 51.3711 151.851 51.4599C152.043 51.5486 152.214 51.6779 152.352 51.839C152.489 52.0001 152.59 52.1891 152.647 52.393C152.704 52.5969 152.717 52.8107 152.683 53.0198Z" fill="white"/>
<path d="M166.224 47.5307C166.224 51.227 164.138 54.3011 160.441 54.3011C156.745 54.3011 154.659 51.227 154.659 47.5307C154.659 43.8344 156.745 40.7603 160.441 40.7603H160.807V42.4803C163.259 42.7365 164.394 45.1885 164.394 47.4941C164.394 49.7997 163.149 52.5445 160.441 52.5445C157.733 52.5445 156.525 49.9095 156.525 47.4941C156.525 45.0787 157.294 43.5416 158.977 42.7731V43.6148C157.733 44.3834 157.257 46.1034 157.257 47.4941C157.257 48.8848 158.099 51.8125 160.441 51.8125C162.783 51.8125 163.662 49.3605 163.662 47.4941C163.662 45.6277 162.783 43.2122 160.441 43.2122H160.075V41.4556C156.855 41.6752 155.391 44.5663 155.391 47.4575C155.391 50.3487 156.965 53.496 160.441 53.496C163.918 53.496 165.492 50.4585 165.492 47.4575C165.492 44.4565 164.357 42.3705 161.905 41.6386V40.87C164.687 41.6752 166.224 44.3834 166.224 47.5307Z" fill="white"/>
<path d="M178.338 45.152C178.338 46.7257 177.643 48.0432 176.398 48.7385L175.996 48.1164C177.094 47.4942 177.606 46.4695 177.606 45.152C177.606 43.0294 176.032 41.7119 173.617 41.7119H169.811V53.3864H170.909V46.9819H171.677L176.398 53.3864H177.679L172.958 46.9819H173.653C175.3 46.9819 175.74 46.1402 175.74 45.152C175.74 44.1639 174.971 43.432 173.763 43.432H171.677V45.9938H170.909V42.7H173.763C175.41 42.7 176.508 43.6516 176.508 45.152C176.549 45.7657 176.351 46.3715 175.956 46.8423C175.56 47.3131 174.997 47.6124 174.385 47.6772L179.143 54.1183H175.996L171.677 48.1896V54.1183H169.079V40.98H173.617C176.654 40.98 178.338 42.8098 178.338 45.152Z" fill="white"/>
<path d="M186.901 47.6038V48.6285H191V52.9103C189.695 53.8309 188.133 54.3174 186.535 54.301C182.766 54.301 180.753 51.2269 180.753 47.5306V47.4208C180.753 44.0539 182.802 40.7601 186.425 40.7601C187.889 40.7304 189.32 41.1945 190.488 42.0776L189.243 44.2735C188.329 43.6513 187.743 43.2487 186.462 43.2487C184.339 43.2487 183.351 45.5543 183.351 47.4208V47.5306C183.351 49.5068 184.156 51.849 186.499 51.849C187.163 51.8521 187.821 51.7278 188.438 51.4831V50.3485H189.17V51.9588L188.804 52.1418C188.074 52.4453 187.289 52.5948 186.499 52.581C183.827 52.581 182.583 50.0924 182.583 47.5306V47.4208C182.583 45.042 183.973 42.5168 186.462 42.5168C187.355 42.4863 188.236 42.7289 188.987 43.2121L189.5 42.2972C188.569 41.7523 187.503 41.4856 186.425 41.5287C183.205 41.5287 181.485 44.493 181.485 47.4208V47.5306C181.485 50.6413 183.095 53.5691 186.535 53.5691C187.856 53.5829 189.152 53.2143 190.268 52.5078V49.3604H186.169V46.8718H191V47.6038H186.901Z" fill="white"/>
</svg>
