<svg width="31" height="30" viewBox="0 0 31 30" fill="none" xmlns="http://www.w3.org/2000/svg">
<path d="M14.6261 12.317L9.60352 17.4632L14.1743 15.0361L16.5626 17.4632L21.557 12.317L17.0368 14.7015L14.6261 12.317Z" fill="#BDBDBD"/>
<path d="M15.5 0C6.9409 0 0 6.717 0 15C0 23.283 6.9409 30 15.5 30C24.0591 30 31 23.283 31 15C31 6.717 24.0591 0 15.5 0ZM15.6211 23.0294C14.6616 23.0294 13.7354 22.8983 12.8641 22.6554L9.73835 24.375V21.14C7.64475 19.5982 6.30775 17.2501 6.30775 14.6203C6.30775 9.97581 10.4774 6.21094 15.6211 6.21094C20.765 6.21094 24.9344 9.97581 24.9344 14.6203C24.9344 19.2643 20.765 23.0294 15.6211 23.0294Z" fill="#BDBDBD"/>
</svg>
