<svg width="24" height="16" viewBox="0 0 24 16" fill="none" xmlns="http://www.w3.org/2000/svg">
<g clip-path="url(#clip0_402_11044)">
<path d="M1.36767e-06 12.3464L1.7608e-06 3.35273C1.79966e-06 2.46353 0.353235 1.61075 0.981995 0.981992C1.61075 0.353233 2.46354 -9.41389e-07 3.35274 -9.02521e-07L20.6473 -1.46553e-07C21.5365 -1.07685e-07 22.3892 0.353234 23.018 0.981993C23.6468 1.61075 24 2.46353 24 3.35274L24 12.3464C24 13.2356 23.6468 14.0884 23.018 14.7172C22.3892 15.346 21.5365 15.6992 20.6473 15.6992L3.35274 15.6992C2.46353 15.6992 1.61075 15.3459 0.981994 14.7172C0.353235 14.0884 1.3288e-06 13.2356 1.36767e-06 12.3464ZM22.8824 3.35274C22.8824 2.75993 22.6469 2.19141 22.2278 1.77224C21.8086 1.35307 21.2401 1.11758 20.6473 1.11758L3.35274 1.11758C2.75994 1.11758 2.19142 1.35307 1.77224 1.77224C1.35307 2.19141 1.11758 2.75993 1.11758 3.35273L1.11758 12.3464C1.11758 12.9392 1.35307 13.5078 1.77224 13.9269C2.19142 14.3461 2.75993 14.5816 3.35274 14.5816L20.6473 14.5816C21.2401 14.5816 21.8086 14.3461 22.2278 13.9269C22.6469 13.5078 22.8824 12.9392 22.8824 12.3464L22.8824 3.35274Z" fill="#BAA6B1"/>
<path d="M20.6668 9.25633L20.6668 6.44282C20.6668 6.29462 20.7257 6.15249 20.8305 6.0477C20.9353 5.94291 21.0774 5.88403 21.2256 5.88403C21.3738 5.88403 21.5159 5.94291 21.6207 6.0477C21.7255 6.15249 21.7844 6.29462 21.7844 6.44282L21.7844 9.25633C21.7844 9.40453 21.7255 9.54666 21.6207 9.65145C21.5159 9.75624 21.3738 9.81512 21.2256 9.81512C21.0774 9.81512 20.9353 9.75624 20.8305 9.65145C20.7257 9.54666 20.6668 9.40453 20.6668 9.25633Z" fill="#BAA6B1"/>
</g>
<defs>
<clipPath id="clip0_402_11044">
<rect width="15.6992" height="24" fill="white" transform="translate(24) rotate(90)"/>
</clipPath>
</defs>
</svg>
