<svg width="16" height="24" viewBox="0 0 16 24" fill="none" xmlns="http://www.w3.org/2000/svg">
<g clip-path="url(#clip0_402_11050)">
<path d="M12.3464 24L3.35274 24C2.46353 24 1.61075 23.6468 0.981993 23.018C0.353234 22.3892 0 21.5365 0 20.6473L0 3.35274C0 2.46353 0.353234 1.61075 0.981993 0.981993C1.61075 0.353234 2.46353 0 3.35274 0L12.3464 0C13.2356 0 14.0884 0.353234 14.7172 0.981993C15.346 1.61075 15.6992 2.46353 15.6992 3.35274L15.6992 20.6473C15.6992 21.5365 15.346 22.3892 14.7172 23.018C14.0884 23.6468 13.2356 24 12.3464 24ZM3.35274 1.11758C2.75993 1.11758 2.19141 1.35307 1.77224 1.77224C1.35307 2.19141 1.11758 2.75993 1.11758 3.35274L1.11758 20.6473C1.11758 21.2401 1.35307 21.8086 1.77224 22.2278C2.19141 22.6469 2.75993 22.8824 3.35274 22.8824L12.3464 22.8824C12.9392 22.8824 13.5078 22.6469 13.9269 22.2278C14.3461 21.8086 14.5816 21.2401 14.5816 20.6473L14.5816 3.35274C14.5816 2.75993 14.3461 2.19141 13.9269 1.77224C13.5078 1.35307 12.9392 1.11758 12.3464 1.11758L3.35274 1.11758Z" fill="#FBC466"/>
<path d="M9.25636 3.33315L6.44285 3.33315C6.29465 3.33315 6.15252 3.27428 6.04773 3.16949C5.94294 3.06469 5.88406 2.92256 5.88406 2.77436C5.88406 2.62616 5.94294 2.48403 6.04773 2.37924C6.15252 2.27445 6.29465 2.21558 6.44285 2.21558L9.25636 2.21558C9.40456 2.21558 9.54669 2.27445 9.65148 2.37924C9.75627 2.48403 9.81515 2.62616 9.81515 2.77436C9.81515 2.92256 9.75627 3.06469 9.65148 3.16949C9.54669 3.27428 9.40456 3.33315 9.25636 3.33315Z" fill="#FBC466"/>
</g>
<defs>
<clipPath id="clip0_402_11050">
<rect width="15.6992" height="24" fill="white"/>
</clipPath>
</defs>
</svg>
