<svg width="10" height="12" viewBox="0 0 10 12" fill="none" xmlns="http://www.w3.org/2000/svg">
<g clip-path="url(#clip0_210_2281)">
<path d="M0.871127 11.9209C0.784145 11.9689 0.685917 11.9942 0.58599 11.9942C0.486063 11.9942 0.387835 11.9689 0.300853 11.9209H0.289627C0.202367 11.8717 0.129756 11.8011 0.078963 11.7161C0.0281703 11.6311 0.000953478 11.5347 1.12137e-07 11.4362V0.567823C-6.45294e-05 0.46614 0.027819 0.366304 0.0807395 0.278739C0.13366 0.191174 0.209677 0.119091 0.300853 0.0700161C0.392837 0.019982 0.497043 -0.00461869 0.602268 -0.0011412C0.707493 0.00233629 0.809758 0.0337604 0.898069 0.089753L9.74405 5.90554C9.82363 5.95805 9.88865 6.02899 9.93331 6.11203C9.97797 6.19507 10.0009 6.28762 10 6.38142V6.39458C9.99647 6.48956 9.96849 6.58215 9.91866 6.66379C9.86882 6.74542 9.79873 6.81348 9.71486 6.86168L0.871127 11.9209ZM1.12259 1.56124V10.5064L8.39919 6.33975L1.12259 1.56124Z" fill="#BDBDBD"/>
</g>
<defs>
<clipPath id="clip0_210_2281">
<rect width="10" height="12" fill="white"/>
</clipPath>
</defs>
</svg>
