<svg width="19" height="19" viewBox="0 0 19 19" fill="none" xmlns="http://www.w3.org/2000/svg">
<g clip-path="url(#clip0_179_1124)">
<path d="M18.1915 9.7321C18.136 9.78806 18.0699 9.83246 17.9971 9.86275C17.9243 9.89304 17.8462 9.90862 17.7673 9.90859L0.848577 9.90859C0.689255 9.90859 0.536458 9.8453 0.4238 9.73264C0.311143 9.61998 0.247852 9.46718 0.247852 9.30786C0.247852 9.14854 0.311142 8.99574 0.4238 8.88308C0.536458 8.77043 0.689255 8.70714 0.848577 8.70714L17.7673 8.70714C17.9263 8.7082 18.0785 8.77183 18.1909 8.88426C18.3033 8.99669 18.367 9.14887 18.368 9.30786C18.3681 9.38673 18.3525 9.46481 18.3222 9.53763C18.2919 9.61044 18.2475 9.67653 18.1915 9.7321Z" fill="#FA9372"/>
<path d="M9.73199 18.1915C9.67642 18.2475 9.61032 18.2919 9.53751 18.3222C9.4647 18.3525 9.38661 18.3681 9.30775 18.368C9.14875 18.367 8.99657 18.3033 8.88414 18.1909C8.77171 18.0785 8.70808 17.9263 8.70703 17.7673L8.70702 0.848568C8.70702 0.689246 8.77031 0.53645 8.88297 0.423792C8.99563 0.311134 9.14843 0.247843 9.30775 0.247843C9.46707 0.247843 9.61987 0.311134 9.73252 0.423792C9.84518 0.53645 9.90847 0.689247 9.90847 0.848569L9.90848 17.7673C9.90851 17.8462 9.89293 17.9242 9.86264 17.9971C9.83235 18.0699 9.78795 18.136 9.73199 18.1915V18.1915Z" fill="#FA9372"/>
</g>
<defs>
<clipPath id="clip0_179_1124">
<rect width="13.1633" height="13.1633" fill="white" transform="translate(0 9.30786) rotate(-45)"/>
</clipPath>
</defs>
</svg>
