<svg width="18" height="21" viewBox="0 0 18 21" fill="none" xmlns="http://www.w3.org/2000/svg">
<g clip-path="url(#clip0_402_10947)">
<path d="M15.0137 20.9999H2.42862C1.7997 21.0141 1.19083 20.7783 0.735546 20.3442C0.280263 19.9101 0.0157418 19.3131 0 18.6842L0 17.8771C0 14.0023 3.32704 10.8483 7.41558 10.8483H10.0268C14.1105 10.8483 17.4423 14.0023 17.4423 17.8771V18.6842C17.4266 19.3131 17.1621 19.9101 16.7068 20.3442C16.2515 20.7783 15.6426 21.0141 15.0137 20.9999ZM7.41558 11.5689C3.7234 11.5689 0.720659 14.3987 0.720659 17.8771V18.6842C0.736946 19.1218 0.925703 19.5351 1.24571 19.834C1.56572 20.1328 1.99098 20.2929 2.42862 20.2793H15.0137C15.4514 20.2929 15.8766 20.1328 16.1966 19.834C16.5166 19.5351 16.7054 19.1218 16.7217 18.6842V17.8771C16.7217 14.3987 13.7189 11.5689 10.0268 11.5689H7.41558Z" fill="white"/>
<path d="M2.25327 18.3671C2.15935 18.3672 2.06913 18.3305 2.00182 18.265C1.93451 18.1995 1.89545 18.1103 1.89294 18.0164C1.89294 15.4389 3.91559 13.1976 6.59885 12.8061C6.69441 12.7924 6.79151 12.8172 6.86877 12.8751C6.94603 12.933 6.99713 13.0192 7.01083 13.1147C7.02452 13.2103 6.9997 13.3074 6.94181 13.3847C6.88392 13.4619 6.79771 13.513 6.70214 13.5267C4.37201 13.8678 2.61841 15.8016 2.61841 18.0236C2.61405 18.1171 2.57352 18.2052 2.50537 18.2693C2.43723 18.3334 2.34682 18.3685 2.25327 18.3671Z" fill="white"/>
<path d="M8.72236 9.81773C7.96157 9.8198 7.21087 9.64356 6.53047 9.30316C5.85007 8.96275 5.25891 8.46764 4.80438 7.85754C4.16213 7.00851 3.81614 5.97223 3.81948 4.90764C3.81948 3.93621 4.10764 2.98661 4.64748 2.179C5.18733 1.37138 5.95461 0.742049 6.85223 0.370628C7.74985 -0.00079192 8.73747 -0.0976063 9.69014 0.0924354C10.6428 0.282477 11.5177 0.750834 12.2041 1.43824C12.8905 2.12565 13.3575 3.00122 13.5462 3.95416C13.7348 4.9071 13.6366 5.89458 13.2638 6.79165C12.8911 7.68873 12.2606 8.45508 11.4522 8.99374C10.6438 9.5324 9.69379 9.81916 8.72236 9.81773ZM8.72236 0.720617C7.61187 0.721252 6.547 1.16251 5.76154 1.94753C4.97608 2.73254 4.53421 3.79715 4.53293 4.90764C4.52994 5.81624 4.82532 6.70069 5.3737 7.42515C5.80258 7.99511 6.36996 8.44606 7.02202 8.73521C7.67409 9.02437 8.38921 9.14215 9.09956 9.07737C9.80991 9.0126 10.4919 8.76743 11.081 8.36511C11.67 7.96279 12.1464 7.41666 12.4652 6.77853C12.7839 6.1404 12.9343 5.43142 12.9021 4.71885C12.87 4.00627 12.6563 3.31373 12.2814 2.70691C11.9065 2.10008 11.3827 1.5991 10.7599 1.25148C10.137 0.903862 9.43566 0.721129 8.72236 0.720617Z" fill="white"/>
</g>
<defs>
<clipPath id="clip0_402_10947">
<rect width="17.4423" height="21" fill="white"/>
</clipPath>
</defs>
</svg>
