<svg width="23" height="22" viewBox="0 0 23 22" fill="none" xmlns="http://www.w3.org/2000/svg">
<g clip-path="url(#clip0_402_10941)">
<path d="M8.89394 0.757576C10.5032 0.757576 12.0762 1.23477 13.4143 2.1288C14.7523 3.02284 15.7951 4.29356 16.411 5.78029C17.0268 7.26701 17.1879 8.90296 16.874 10.4813C16.56 12.0596 15.7851 13.5093 14.6472 14.6472C13.5093 15.7851 12.0596 16.56 10.4813 16.874C8.90296 17.1879 7.26701 17.0268 5.78029 16.411C4.29356 15.7951 3.02283 14.7523 2.1288 13.4143C1.23476 12.0762 0.757572 10.5032 0.757572 8.89394C0.759578 6.73666 1.61744 4.66831 3.14287 3.14288C4.6683 1.61745 6.73666 0.759582 8.89394 0.757576ZM8.89394 3.58663e-07C7.13478 -0.00049912 5.41497 0.520697 3.95204 1.49767C2.48911 2.47465 1.34876 3.86351 0.675207 5.48863C0.00165845 7.11374 -0.174832 8.90209 0.168058 10.6275C0.510947 12.3529 1.35781 13.9379 2.60155 15.182C3.84529 16.4261 5.43004 17.2734 7.15536 17.6168C8.88069 17.9602 10.6691 17.7842 12.2944 17.1111C13.9197 16.438 15.3089 15.2981 16.2863 13.8354C17.2637 12.3728 17.7854 10.6531 17.7854 8.89394C17.7854 6.53556 16.8487 4.27373 15.1813 2.60587C13.5139 0.938003 11.2523 0.000669973 8.89394 3.58663e-07Z" fill="white"/>
<path d="M3.76767 10.4924C3.70278 10.4921 3.63903 10.4752 3.58247 10.4434C3.5259 10.4116 3.4784 10.3659 3.44444 10.3106C2.82532 9.28954 2.63714 8.06439 2.92128 6.90462C3.20542 5.74485 3.93862 4.74544 4.95959 4.12623C5.00221 4.10053 5.04947 4.08347 5.09867 4.07603C5.14787 4.0686 5.19806 4.07092 5.24637 4.08288C5.29467 4.09484 5.34015 4.1162 5.3802 4.14573C5.42025 4.17527 5.4541 4.2124 5.4798 4.25501C5.5055 4.29763 5.52255 4.34489 5.52999 4.39409C5.53743 4.44329 5.5351 4.49348 5.52314 4.54179C5.51118 4.59009 5.48982 4.63557 5.46029 4.67562C5.43075 4.71567 5.39362 4.74952 5.35101 4.77522C4.50207 5.28983 3.8922 6.12047 3.65543 7.08456C3.41867 8.04866 3.5744 9.06731 4.08838 9.91663C4.14055 10.0024 4.15655 10.1053 4.13288 10.2029C4.10921 10.3004 4.04779 10.3845 3.96212 10.4368C3.90375 10.4731 3.8364 10.4924 3.76767 10.4924Z" fill="white"/>
<path d="M21.3788 22C21.2704 21.999 21.1632 21.9761 21.0639 21.9327C20.9645 21.8893 20.8749 21.8263 20.8005 21.7475L15.7348 16.6945C15.6953 16.6604 15.6632 16.6185 15.6405 16.5715C15.6179 16.5244 15.6053 16.4732 15.6034 16.4211C15.6015 16.3689 15.6104 16.3169 15.6295 16.2683C15.6487 16.2198 15.6777 16.1757 15.7147 16.1389C15.7517 16.102 15.7959 16.0733 15.8446 16.0543C15.8932 16.0354 15.9453 16.0267 15.9974 16.0289C16.0496 16.031 16.1007 16.0439 16.1477 16.0667C16.1946 16.0896 16.2363 16.1219 16.2702 16.1616L21.3358 21.2248C21.3408 21.2315 21.3472 21.2371 21.3547 21.2409C21.3621 21.2447 21.3704 21.2467 21.3788 21.2467C21.3872 21.2467 21.3954 21.2447 21.4029 21.2409C21.4103 21.2371 21.4168 21.2315 21.4217 21.2248L21.9116 20.7349C21.9176 20.7294 21.9223 20.7228 21.9256 20.7154C21.9289 20.708 21.9306 20.7 21.9306 20.6919C21.9306 20.6838 21.9289 20.6759 21.9256 20.6685C21.9223 20.6611 21.9176 20.6544 21.9116 20.649L16.8459 15.5833C16.7756 15.512 16.7362 15.4158 16.7362 15.3157C16.7362 15.2155 16.7756 15.1193 16.8459 15.048C16.8809 15.0126 16.9226 14.9844 16.9686 14.9652C17.0145 14.946 17.0638 14.9362 17.1136 14.9362C17.1634 14.9362 17.2127 14.946 17.2587 14.9652C17.3046 14.9844 17.3463 15.0126 17.3813 15.048L22.4495 20.1136C22.6021 20.2674 22.6878 20.4753 22.6878 20.6919C22.6878 20.9086 22.6021 21.1165 22.4495 21.2702L21.9444 21.7601C21.795 21.9117 21.5916 21.9979 21.3788 22Z" fill="white"/>
</g>
<defs>
<clipPath id="clip0_402_10941">
<rect width="22.6869" height="22" fill="white"/>
</clipPath>
</defs>
</svg>
