<svg width="21" height="20" viewBox="0 0 21 20" fill="none" xmlns="http://www.w3.org/2000/svg">
<g clip-path="url(#clip0_260_5651)">
<path d="M8.23254 0.688705C9.72211 0.688705 11.1782 1.12251 12.4168 1.93527C13.6553 2.74803 14.6206 3.90324 15.1906 5.25481C15.7607 6.60638 15.9098 8.0936 15.6192 9.52842C15.3286 10.9632 14.6113 12.2812 13.558 13.3156C12.5048 14.3501 11.1628 15.0546 9.70184 15.34C8.24089 15.6254 6.72658 15.4789 5.3504 14.9191C3.97422 14.3592 2.79797 13.4112 1.97041 12.1948C1.14285 10.9784 0.701147 9.54833 0.701147 8.0854C0.703003 6.12423 1.49708 4.24391 2.90909 2.85716C4.3211 1.47041 6.23566 0.690529 8.23254 0.688705ZM8.23254 3.26057e-07C6.60418 -0.000453745 5.01225 0.473361 3.65809 1.36152C2.30393 2.24968 1.24837 3.51229 0.624906 4.98966C0.00143836 6.46703 -0.161929 8.09281 0.155465 9.66137C0.472859 11.2299 1.25676 12.6708 2.40802 13.8018C3.55928 14.9328 5.02619 15.7031 6.62323 16.0153C8.22027 16.3274 9.8757 16.1674 11.3802 15.5556C12.8846 14.9437 14.1705 13.9073 15.0752 12.5776C15.9799 11.248 16.4628 9.68464 16.4628 8.0854C16.4628 5.94141 15.5958 3.88521 14.0524 2.36897C12.509 0.85273 10.4156 0.000609066 8.23254 3.26057e-07Z" fill="#7A6C73"/>
<path d="M3.48767 9.53858C3.42759 9.53831 3.36859 9.52299 3.31623 9.49407C3.26387 9.46514 3.2199 9.42357 3.18847 9.37329C2.61538 8.44508 2.44119 7.33131 2.7042 6.27697C2.96722 5.22263 3.6459 4.31408 4.59096 3.75116C4.6304 3.72779 4.67415 3.71229 4.7197 3.70553C4.76524 3.69877 4.8117 3.70088 4.85641 3.71176C4.90112 3.72263 4.94322 3.74204 4.98029 3.76889C5.01737 3.79574 5.04869 3.8295 5.07248 3.86824C5.09627 3.90698 5.11206 3.94994 5.11894 3.99467C5.12583 4.0394 5.12367 4.08503 5.1126 4.12894C5.10153 4.17286 5.08177 4.2142 5.05443 4.25061C5.02709 4.28702 4.99272 4.31779 4.95327 4.34115C4.16745 4.80898 3.60293 5.56411 3.38377 6.44056C3.16461 7.317 3.30876 8.24305 3.78453 9.01516C3.83282 9.09311 3.84763 9.1867 3.82572 9.27537C3.8038 9.36404 3.74695 9.44054 3.66765 9.48808C3.61362 9.52106 3.55128 9.53855 3.48767 9.53858Z" fill="#7A6C73"/>
<path d="M19.7891 20.0001C19.6887 19.9991 19.5896 19.9783 19.4976 19.9389C19.4056 19.8994 19.3227 19.8422 19.2538 19.7705L14.5648 15.1768C14.5282 15.1459 14.4984 15.1078 14.4775 15.065C14.4566 15.0223 14.4449 14.9757 14.4431 14.9283C14.4414 14.8809 14.4496 14.8336 14.4673 14.7894C14.4851 14.7453 14.5119 14.7052 14.5462 14.6717C14.5804 14.6383 14.6213 14.6121 14.6664 14.5949C14.7114 14.5777 14.7596 14.5698 14.8078 14.5717C14.8561 14.5737 14.9035 14.5854 14.9469 14.6062C14.9904 14.6269 15.029 14.6563 15.0603 14.6924L19.7493 19.2953C19.7539 19.3014 19.7599 19.3065 19.7668 19.3099C19.7737 19.3134 19.7813 19.3152 19.7891 19.3152C19.7968 19.3152 19.8045 19.3134 19.8114 19.3099C19.8183 19.3065 19.8243 19.3014 19.8288 19.2953L20.2823 18.8499C20.2878 18.845 20.2922 18.8389 20.2953 18.8322C20.2983 18.8255 20.2998 18.8182 20.2998 18.8109C20.2998 18.8035 20.2983 18.7963 20.2953 18.7896C20.2922 18.7828 20.2878 18.7768 20.2823 18.7719L15.5933 14.1667C15.5282 14.1019 15.4917 14.0144 15.4917 13.9234C15.4917 13.8323 15.5282 13.7449 15.5933 13.68C15.6257 13.6478 15.6643 13.6223 15.7068 13.6048C15.7493 13.5874 15.795 13.5784 15.8411 13.5784C15.8872 13.5784 15.9328 13.5874 15.9753 13.6048C16.0179 13.6223 16.0564 13.6478 16.0888 13.68L20.7802 18.2852C20.9215 18.4249 21.0008 18.6139 21.0008 18.8109C21.0008 19.0079 20.9215 19.1968 20.7802 19.3366L20.3127 19.782C20.1743 19.9197 19.9861 19.9981 19.7891 20.0001Z" fill="#7A6C73"/>
</g>
<defs>
<clipPath id="clip0_260_5651">
<rect width="21" height="20" fill="white"/>
</clipPath>
</defs>
</svg>
