<svg width="19" height="17" viewBox="0 0 19 17" fill="none" xmlns="http://www.w3.org/2000/svg">
<g clip-path="url(#clip0_174_33)">
<path d="M1.34998 2.69996C2.09555 2.69996 2.69996 2.09555 2.69996 1.34998C2.69996 0.604407 2.09555 0 1.34998 0C0.604407 0 0 0.604407 0 1.34998C0 2.09555 0.604407 2.69996 1.34998 2.69996Z" fill="#7A6C73"/>
<path d="M1.34998 9.98634C2.09555 9.98634 2.69996 9.38193 2.69996 8.63636C2.69996 7.89078 2.09555 7.28638 1.34998 7.28638C0.604407 7.28638 0 7.89078 0 8.63636C0 9.38193 0.604407 9.98634 1.34998 9.98634Z" fill="#7A6C73"/>
<path d="M1.34998 17C2.09555 17 2.69996 16.3956 2.69996 15.65C2.69996 14.9045 2.09555 14.3 1.34998 14.3C0.604407 14.3 0 14.9045 0 15.65C0 16.3956 0.604407 17 1.34998 17Z" fill="#7A6C73"/>
<path d="M18.1772 2.17684H5.71043C5.56345 2.17684 5.42249 2.11845 5.31857 2.01452C5.21464 1.9106 5.15625 1.76964 5.15625 1.62266C5.15625 1.47568 5.21464 1.33473 5.31857 1.2308C5.42249 1.12687 5.56345 1.06848 5.71043 1.06848H18.1772C18.3242 1.06848 18.4652 1.12687 18.5691 1.2308C18.673 1.33473 18.7314 1.47568 18.7314 1.62266C18.7314 1.76964 18.673 1.9106 18.5691 2.01452C18.4652 2.11845 18.3242 2.17684 18.1772 2.17684Z" fill="#7A6C73"/>
<path d="M18.1772 9.19051H5.71043C5.63765 9.19051 5.56559 9.17618 5.49835 9.14833C5.43112 9.12048 5.37003 9.07966 5.31857 9.0282C5.26711 8.97674 5.22628 8.91564 5.19843 8.84841C5.17058 8.78117 5.15625 8.70911 5.15625 8.63633C5.15625 8.56356 5.17058 8.49149 5.19843 8.42426C5.22628 8.35702 5.26711 8.29593 5.31857 8.24447C5.37003 8.19301 5.43112 8.15219 5.49835 8.12434C5.56559 8.09649 5.63765 8.08215 5.71043 8.08215H18.1772C18.3242 8.08215 18.4652 8.14054 18.5691 8.24447C18.673 8.3484 18.7314 8.48936 18.7314 8.63633C18.7314 8.78331 18.673 8.92427 18.5691 9.0282C18.4652 9.13213 18.3242 9.19051 18.1772 9.19051Z" fill="#7A6C73"/>
<path d="M18.1772 16.2042H5.71043C5.56345 16.2042 5.42249 16.1458 5.31857 16.0419C5.21464 15.9379 5.15625 15.797 5.15625 15.65C5.15625 15.503 5.21464 15.3621 5.31857 15.2581C5.42249 15.1542 5.56345 15.0958 5.71043 15.0958H18.1772C18.3242 15.0958 18.4652 15.1542 18.5691 15.2581C18.673 15.3621 18.7314 15.503 18.7314 15.65C18.7314 15.797 18.673 15.9379 18.5691 16.0419C18.4652 16.1458 18.3242 16.2042 18.1772 16.2042Z" fill="#7A6C73"/>
</g>
<defs>
<clipPath id="clip0_174_33">
<rect width="18.7313" height="17" fill="white"/>
</clipPath>
</defs>
</svg>
