<svg width="17" height="18" viewBox="0 0 17 18" fill="none" xmlns="http://www.w3.org/2000/svg">
<g clip-path="url(#clip0_249_3217)">
<path d="M2.68243 11.9448C2.15174 11.9452 1.63287 11.7882 1.19145 11.4937C0.750026 11.1991 0.405906 10.7802 0.202629 10.29C-0.000647625 9.79981 -0.0539443 9.26032 0.0494832 8.73982C0.152911 8.21931 0.408414 7.74118 0.783662 7.36594C1.15891 6.99069 1.63704 6.73519 2.15754 6.63176C2.67804 6.52833 3.21753 6.58163 3.70774 6.7849C4.19794 6.98818 4.61683 7.3323 4.9114 7.77372C5.20596 8.21514 5.36297 8.73402 5.36255 9.2647C5.36143 9.97517 5.0787 10.6562 4.57632 11.1586C4.07394 11.661 3.39289 11.9437 2.68243 11.9448ZM2.68243 7.43261C2.31998 7.43219 1.96556 7.53928 1.66399 7.74034C1.36242 7.94139 1.12727 8.22738 0.988277 8.56211C0.849284 8.89685 0.812699 9.26529 0.883151 9.62082C0.953602 9.97635 1.12792 10.303 1.38406 10.5594C1.6402 10.8159 1.96664 10.9906 2.32209 11.0614C2.67754 11.1323 3.04602 11.0961 3.38092 10.9575C3.71581 10.8189 4.00207 10.5841 4.20348 10.2828C4.40489 9.98145 4.51239 9.62715 4.51239 9.2647C4.51015 8.78045 4.31649 8.31673 3.97367 7.9747C3.63085 7.63268 3.16668 7.4401 2.68243 7.43898V7.43261Z" fill="#7A6C73"/>
<path d="M13.6922 5.36242C13.1613 5.3641 12.6418 5.20817 12.1995 4.91437C11.7573 4.62057 11.4121 4.20212 11.2079 3.71203C11.0036 3.22194 10.9494 2.68226 11.0521 2.16133C11.1548 1.64041 11.4098 1.16169 11.7848 0.7858C12.1598 0.409914 12.6379 0.153776 13.1586 0.0498298C13.6793 -0.0541163 14.2191 -0.00119406 14.7097 0.201893C15.2002 0.404981 15.6195 0.749096 15.9144 1.19065C16.2092 1.63221 16.3664 2.15134 16.366 2.68229C16.3649 3.39166 16.083 4.07175 15.582 4.57394C15.081 5.07614 14.4016 5.35961 13.6922 5.36242ZM13.6922 0.850197C13.3295 0.848514 12.9745 0.954532 12.6721 1.15482C12.3697 1.35511 12.1335 1.64065 11.9935 1.97527C11.8536 2.30989 11.8161 2.67853 11.8858 3.03447C11.9555 3.39042 12.1293 3.71767 12.3852 3.97474C12.6411 4.23181 12.9675 4.40715 13.3232 4.47853C13.6788 4.54992 14.0476 4.51414 14.3829 4.37572C14.7181 4.23731 15.0048 4.00249 15.2064 3.70103C15.4081 3.39956 15.5158 3.04501 15.5158 2.68229C15.5153 2.19803 15.3232 1.73364 14.9816 1.39042C14.64 1.0472 14.1765 0.853003 13.6922 0.850197Z" fill="#7A6C73"/>
<path d="M13.6922 18C13.1613 18.0017 12.6418 17.8457 12.1995 17.5519C11.7573 17.2581 11.4121 16.8397 11.2079 16.3496C11.0036 15.8595 10.9494 15.3198 11.0521 14.7989C11.1548 14.278 11.4098 13.7993 11.7848 13.4234C12.1598 13.0475 12.6379 12.7913 13.1586 12.6874C13.6793 12.5835 14.2191 12.6364 14.7097 12.8395C15.2002 13.0426 15.6195 13.3867 15.9144 13.8282C16.2092 14.2698 16.3664 14.7889 16.366 15.3199C16.3654 16.0294 16.0837 16.7098 15.5826 17.2121C15.0815 17.7144 14.4018 17.9977 13.6922 18ZM13.6922 13.4878C13.3295 13.4861 12.9745 13.5921 12.6721 13.7924C12.3697 13.9927 12.1335 14.2782 11.9935 14.6128C11.8536 14.9475 11.8161 15.3161 11.8858 15.672C11.9555 16.028 12.1293 16.3552 12.3852 16.6123C12.6411 16.8694 12.9675 17.0447 13.3232 17.1161C13.6788 17.1875 14.0476 17.1517 14.3829 17.0133C14.7181 16.8749 15.0048 16.6401 15.2064 16.3386C15.4081 16.0371 15.5158 15.6826 15.5158 15.3199C15.5153 14.8356 15.3232 14.3712 14.9816 14.028C14.64 13.6848 14.1765 13.4906 13.6922 13.4878Z" fill="#7A6C73"/>
<path d="M11.5153 3.19626L4.48486 7.51465L4.92983 8.23906L11.9603 3.92067L11.5153 3.19626Z" fill="#7A6C73"/>
<path d="M4.50405 9.7574L4.05908 10.4818L11.0895 14.8002L11.5345 14.0758L4.50405 9.7574Z" fill="#7A6C73"/>
</g>
<defs>
<clipPath id="clip0_249_3217">
<rect width="16.3741" height="18" fill="white"/>
</clipPath>
</defs>
</svg>
