<svg width="19" height="2" viewBox="0 0 19 2" fill="none" xmlns="http://www.w3.org/2000/svg">
<path d="M18.1896 1.73046C18.134 1.78641 18.0679 1.83081 17.9951 1.8611C17.9223 1.89139 17.8442 1.90697 17.7654 1.90694L0.846624 1.90694C0.687302 1.90694 0.534505 1.84365 0.421847 1.73099C0.309189 1.61833 0.245899 1.46554 0.245899 1.30621C0.245899 1.14689 0.309189 0.994094 0.421847 0.881437C0.534505 0.768779 0.687302 0.705488 0.846624 0.705488L17.7654 0.705491C17.9244 0.70655 18.0765 0.77018 18.189 0.882609C18.3014 0.995038 18.365 1.14722 18.3661 1.30622C18.3661 1.38508 18.3505 1.46316 18.3202 1.53598C18.29 1.60879 18.2456 1.67489 18.1896 1.73046Z" fill="#FA9372"/>
</svg>
