<svg width="31" height="30" viewBox="0 0 31 30" fill="none" xmlns="http://www.w3.org/2000/svg">
<path d="M15.5039 0H15.4961C6.94981 0 0 6.7275 0 15C0 18.2812 1.09275 21.3225 2.95081 23.7919L1.01912 29.3644L6.97694 27.5213C9.42788 29.0925 12.3516 30 15.5039 30C24.0502 30 31 23.2706 31 15C31 6.72938 24.0502 0 15.5039 0ZM24.5229 21.1819C24.149 22.2038 22.6649 23.0512 21.4811 23.2987C20.6712 23.4656 19.6133 23.5988 16.0522 22.17C11.4971 20.3438 8.56375 15.8644 8.33512 15.5737C8.11619 15.2831 6.4945 13.2019 6.4945 11.0494C6.4945 8.89688 7.62406 7.84875 8.07938 7.39875C8.45331 7.02938 9.07137 6.86062 9.66425 6.86062C9.85606 6.86062 10.0285 6.87 10.1835 6.8775C10.6388 6.89625 10.8674 6.9225 11.1677 7.61813C11.5417 8.49 12.4523 10.6425 12.5608 10.8638C12.6712 11.085 12.7817 11.385 12.6267 11.6756C12.4814 11.9756 12.3535 12.1087 12.1249 12.3637C11.8962 12.6187 11.6792 12.8138 11.4506 13.0875C11.2414 13.3256 11.005 13.5806 11.2685 14.0213C11.532 14.4525 12.4426 15.8906 13.7834 17.0456C15.5136 18.5362 16.9163 19.0125 17.4181 19.215C17.7921 19.365 18.2377 19.3294 18.5109 19.0481C18.8577 18.6863 19.2859 18.0863 19.7218 17.4956C20.0318 17.0719 20.4232 17.0194 20.8339 17.1694C21.2524 17.31 23.467 18.3694 23.9223 18.5887C24.3776 18.81 24.6779 18.915 24.7884 19.1006C24.8969 19.2863 24.8969 20.1581 24.5229 21.1819Z" fill="#BDBDBD"/>
</svg>
