<svg width="26" height="17" viewBox="0 0 26 17" fill="none" xmlns="http://www.w3.org/2000/svg">
<g clip-path="url(#clip0_249_3225)">
<path d="M12.6844 17L4.66232 16.87C3.42072 16.8454 2.23798 16.3362 1.3668 15.4512C0.495614 14.5662 0.00508014 13.3756 0 12.1338L0 4.90448C0.00685747 3.6678 0.494585 2.48229 1.35998 1.59882C2.22538 0.715342 3.40055 0.203212 4.63683 0.17079L12.6665 0L20.7166 0.17079C21.9529 0.203212 23.128 0.715342 23.9934 1.59882C24.8588 2.48229 25.3466 3.6678 25.3534 4.90448V12.1338C25.3483 13.3756 24.8578 14.5662 23.9866 15.4512C23.1154 16.3362 21.9327 16.8454 20.6911 16.87L12.6844 17ZM12.6665 1.01964L4.65722 1.18788C3.68717 1.21433 2.76538 1.61683 2.08661 2.31035C1.40784 3.00386 1.02524 3.93409 1.01964 4.90448V12.1338C1.02408 13.1082 1.40899 14.0424 2.09232 14.7372C2.77565 15.432 3.70334 15.8323 4.67761 15.8529L12.6844 15.9804L20.6758 15.8529C21.6501 15.8323 22.5778 15.432 23.2611 14.7372C23.9444 14.0424 24.3293 13.1082 24.3338 12.1338V4.90448C24.3282 3.93409 23.9456 3.00386 23.2668 2.31035C22.588 1.61683 21.6663 1.21433 20.6962 1.18788L12.6665 1.01964Z" fill="#7A6C73"/>
<path d="M11.3409 11.6035C11.0705 11.6035 10.8112 11.4961 10.6199 11.3048C10.4287 11.1136 10.3213 10.8543 10.3213 10.5838V6.41606C10.3215 6.23716 10.3687 6.06146 10.4583 5.9066C10.5479 5.75174 10.6766 5.62317 10.8316 5.53381C10.9865 5.44444 11.1623 5.39742 11.3412 5.39746C11.5201 5.39751 11.6958 5.44462 11.8508 5.53407L15.4577 7.61669C15.6129 7.70615 15.7417 7.83488 15.8312 7.98993C15.9208 8.14499 15.968 8.32089 15.968 8.49995C15.968 8.67902 15.9208 8.85492 15.8312 9.00997C15.7417 9.16503 15.6129 9.29376 15.4577 9.38322L11.8508 11.4709C11.6954 11.559 11.5195 11.6047 11.3409 11.6035ZM11.3409 6.41606V10.5813L14.9479 8.49868L11.3409 6.41606Z" fill="#7A6C73"/>
</g>
<defs>
<clipPath id="clip0_249_3225">
<rect width="25.3534" height="17" fill="white"/>
</clipPath>
</defs>
</svg>
